<?xml version="1.0" encoding="UTF-8"?>
<svg version="1.1" xmlns="http://www.w3.org/2000/svg" width="1024" height="1024">
<path d="M0 0 C3.71668022 1.61594792 5.88318426 3.54624801 8 7 C8 7.66 8 8.32 8 9 C9.15113281 9.11085938 10.30226563 9.22171875 11.48828125 9.3359375 C16.6666324 9.98137832 21.36402231 11.62629105 26.26367188 13.359375 C30.22614548 14.68655576 32.98848699 15.35434568 37 14 C37.928125 13.443125 37.928125 13.443125 38.875 12.875 C42.15842056 11.5230033 44.59400193 12.22319342 48 13 C52.1285962 14.87663464 54.2601682 16.78777564 56 21 C55.92863167 22.46030592 55.82120713 23.91907788 55.6875 25.375 C55.47806389 27.72876524 55.47806389 27.72876524 56 30 C57.9388763 32.06897406 60.022122 33.6571278 62.28515625 35.359375 C62.85105469 35.90078125 63.41695312 36.4421875 64 37 C64 40.4375 64 40.4375 63 43 C61.21484375 43.71875 61.21484375 43.71875 59 44 C57.25390625 42.53125 57.25390625 42.53125 55.5625 40.5 C53.79346886 38.54630537 53.79346886 38.54630537 52 37 C49.48952515 36.93453102 49.48952515 36.93453102 47 38 C40.64756944 38.50416116 38.24699991 37.84779994 33 34 C28.0359768 31.98755816 23.73687792 34.1733608 19 36 C17.59783375 40.61215692 18.53725264 43.77230402 19.9375 48.3125 C20.31777344 49.56675781 20.69804687 50.82101562 21.08984375 52.11328125 C21.39019531 53.06589844 21.69054687 54.01851563 22 55 C23.175625 54.979375 24.35125 54.95875 25.5625 54.9375 C29.45066903 54.93059384 33.15767343 55.38522775 37 56 C37.66 56 38.32 56 39 56 C39.1546875 54.576875 39.1546875 54.576875 39.3125 53.125 C40 50 40 50 43 48 C46.38351683 48.18125983 49.02407955 48.45104475 52 50.125 C53.70657378 53.32482583 52.95196177 55.6086362 52 59 C49.875 61.5 49.875 61.5 47 63 C43.3125 62.6875 43.3125 62.6875 40 62 C39.01 62.495 39.01 62.495 38 63 C37.64159778 65.32961443 37.31151288 67.66365343 37 70 C35.90647549 73.13477027 34.52725043 76.05458846 33 79 C26.5659846 79 20.61108472 76.46698832 16 72 C14.5216774 69.04335481 14.93967217 66.25770263 15 63 C10.75035873 62.85486198 6.50135365 62.76597963 2.25 62.6875 C1.0434375 62.64560547 -0.163125 62.60371094 -1.40625 62.56054688 C-3.14648438 62.53637695 -3.14648438 62.53637695 -4.921875 62.51171875 C-6.52434082 62.47244263 -6.52434082 62.47244263 -8.15917969 62.43237305 C-11.9540046 63.19062055 -12.85611707 64.88945022 -15 68 C-18.73974432 69.86987216 -23.46790828 69.30641834 -27.5 68.5 C-27.995 68.335 -28.49 68.17 -29 68 C-29 68.66 -29 69.32 -29 70 C-30.47211336 71.08071814 -31.97833126 72.11525068 -33.5 73.125 C-36.87298887 75.48687446 -36.87298887 75.48687446 -38.4921875 79.0625 C-38.37953085 81.04525709 -38.19129551 83.02327968 -38 85 C-39.64092959 88.69209157 -41.55512394 90.88862435 -45 93 C-45.66 93 -46.32 93 -47 93 C-47 99.27 -47 105.54 -47 112 C-45.68 112.33 -44.36 112.66 -43 113 C-38.39349231 117.08004967 -37.84344526 119.80041991 -37.37890625 125.7109375 C-36.97750552 128.13589449 -36.20137315 129.8696298 -35 132 C-35.66 132.66 -36.32 133.32 -37 134 C-38.32 134 -39.64 134 -41 134 C-41 133.34 -41 132.68 -41 132 C-41.56847656 132.3403125 -42.13695312 132.680625 -42.72265625 133.03125 C-45.38078174 134.16197919 -46.61969272 133.9181569 -49.4375 133.5 C-56.1574025 133.29970484 -60.38711512 137.33700716 -65.3125 141.421875 C-68.01894543 143.69071061 -68.01894543 143.69071061 -68.90478516 146.05029297 C-70.33434583 148.59520414 -71.46436895 148.89479176 -74.2109375 149.7734375 C-75.04367188 150.04027344 -75.87640625 150.30710937 -76.734375 150.58203125 C-77.60578125 150.84371094 -78.4771875 151.10539063 -79.375 151.375 C-80.67050781 151.80232422 -80.67050781 151.80232422 -81.9921875 152.23828125 C-88.42940173 154.23500974 -88.42940173 154.23500974 -91.27978516 153.06103516 C-91.84745605 152.71089355 -92.41512695 152.36075195 -93 152 C-93.32906764 143.77330896 -93.32906764 143.77330896 -91.75 140.0625 C-90.71826243 135.84957158 -92.16631611 133.6080416 -93.90625 129.74609375 C-95.67328603 125.30957116 -96.3198437 120.70739752 -97 116 C-97.9075 115.79375 -98.815 115.5875 -99.75 115.375 C-103.94718374 113.59926842 -105.05874368 112.10650376 -107 108 C-107.86017086 103.92160368 -107.90773173 100.5724256 -105.7890625 96.90234375 C-103.11776688 93.60051389 -101.27713029 91.74384875 -97 91 C-96.96132812 90.14341797 -96.96132812 90.14341797 -96.921875 89.26953125 C-96.39875312 81.79126614 -94.38345356 75.08084329 -92 68 C-90.67891571 65.1684275 -90.67891571 65.1684275 -91.8125 63.203125 C-92.204375 62.55859375 -92.59625 61.9140625 -93 61.25 C-94.56517508 58.25646585 -95.00237054 56.93243957 -95.125 53.4375 C-93.68151072 49.02683832 -91.36087901 46.15583864 -88 43 C-86 42 -86 42 -82.0625 42.0625 C-76.07727997 41.42122643 -72.46105512 38.03756153 -68.24609375 33.96875 C-65.19315511 29.93356153 -64.78138525 26.59100168 -64.375 21.64453125 C-64 19 -64 19 -61.625 15.875 C-57.20509687 12.71792633 -54.57076243 11.34461618 -49 12 C-47.87544387 12.71906714 -46.77197052 13.47179199 -45.6875 14.25 C-43.93566356 15.4239852 -43.93566356 15.4239852 -42 16 C-39.7208464 15.37110492 -37.88000745 14.33804472 -35.8046875 13.20703125 C-31.57367659 11.38616444 -27.14483076 10.89683241 -22.58422852 10.39233398 C-18.55641838 9.80966401 -17.20230741 9.25421523 -14.625 6.015625 C-14.08875 5.02046875 -13.5525 4.0253125 -13 3 C-9.43822557 -0.95752715 -4.97854091 -0.65905551 0 0 Z M-24.0390625 18.05859375 C-24.78414063 18.27966797 -25.52921875 18.50074219 -26.296875 18.72851562 C-27.44929688 19.07946289 -27.44929688 19.07946289 -28.625 19.4375 C-29.40101563 19.66759766 -30.17703125 19.89769531 -30.9765625 20.13476562 C-35.07643405 21.33541213 -35.07643405 21.33541213 -39 23 C-39.5394814 24.98900585 -39.5394814 24.98900585 -39.875 27.3125 C-40.69656357 31.35613321 -41.5718644 33.47931206 -45 36 C-45.5775 36.433125 -46.155 36.86625 -46.75 37.3125 C-51.16913066 38.66278993 -55.69299688 37.43566771 -60 36 C-62.29680531 37.24767069 -62.29680531 37.24767069 -64.5625 39.125 C-65.34753906 39.72570312 -66.13257813 40.32640625 -66.94140625 40.9453125 C-69.24984368 43.24936959 -70.1848588 44.8510319 -71 48 C-70.71105557 50.26561765 -70.71105557 50.26561765 -69.9375 52.4375 C-69.07998854 55.81149932 -68.95330903 56.84533616 -70 60.3125 C-72.98581568 64.32468982 -76.08909609 66.60199802 -81.01953125 67.62890625 C-84.34149806 68.77563162 -84.34149806 68.77563162 -85.6796875 72.44921875 C-86.1035424 73.85456264 -86.50124773 75.26800936 -86.875 76.6875 C-87.19210938 77.73067383 -87.19210938 77.73067383 -87.515625 78.79492188 C-88.7989672 83.25745269 -89.42191404 87.32378603 -89 92 C-86.67678298 94.24191401 -86.67678298 94.24191401 -84 96 C-80.88819965 100.14906713 -81.73412648 105.47420151 -82.25 110.375 C-83.31284586 112.67783269 -84.69255952 113.0910083 -87 114 C-87.99 114.495 -87.99 114.495 -89 115 C-88.55003079 121.86203039 -87.88557164 129.14641155 -84 135 C-79.47754106 137.1972679 -74.93878321 137 -70 137 C-67.10584911 135.02909766 -67.10584911 135.02909766 -64.25 132.5 C-63.26515625 131.6646875 -62.2803125 130.829375 -61.265625 129.96875 C-60.51796875 129.3190625 -59.7703125 128.669375 -59 128 C-59.33 126.35 -59.66 124.7 -60 123 C-62.96175123 123.61277612 -64.38058783 124.25372522 -67 126 C-70.5625 126.25 -70.5625 126.25 -74 126 C-76.430466 123.569534 -76.76271993 122.4010144 -77 119 C-76 116.1875 -76 116.1875 -74 114 C-69.86856776 113.36439504 -67.01095289 113.85928701 -63.3125 115.625 C-60.18662663 117.33914391 -60.18662663 117.33914391 -57.625 116.25 C-56.05478952 115.09790258 -56.05478952 115.09790258 -55 114 C-54.47247656 109.68212295 -54.25168447 105.34155711 -54 101 C-53.89945313 99.55947266 -53.89945313 99.55947266 -53.796875 98.08984375 C-53.61579061 93.80202398 -53.55571686 91.68792229 -55.9375 88 C-56.618125 87.34 -57.29875 86.68 -58 86 C-58.495 85.01 -58.495 85.01 -59 84 C-62.67677014 83.56743881 -63.86987526 83.91053924 -67 86.0625 C-70 88 -70 88 -72.6875 88 C-75.58443183 86.74727272 -76.61561504 85.84568019 -78 83 C-77.875 79.875 -77.875 79.875 -77 77 C-74 75 -74 75 -71.125 75.25 C-68 76 -68 76 -65.4375 77.1875 C-62.97129717 78.26216235 -62.97129717 78.26216235 -60.3125 77.25 C-57.89509971 76.08563646 -57.89509971 76.08563646 -56 74 C-56.35896491 67.77794162 -58.07408165 63.13990928 -62.25 58.5 C-64 56 -64 56 -64.0625 52.875 C-63 50 -63 50 -60.75 48 C-58 47 -58 47 -55.25 47.6875 C-53 49 -53 49 -52 51 C-51.8683971 53.96106526 -51.83939347 56.45977803 -52.6875 59.3125 C-53.1782592 63.53302912 -51.50605606 67.09446479 -50 71 C-47.15598766 72.05104804 -45.9355401 72.4703066 -43 72 C-38.57566422 69.06562436 -33.75146587 65.64990595 -32.2578125 60.3828125 C-32.17273438 59.59648437 -32.08765625 58.81015625 -32 58 C-31.03001034 54.12004136 -30.41766111 52.36793955 -27.375 49.6875 C-24.39158541 46.31153086 -24.39772625 44.43678694 -24.62109375 40.0703125 C-25.10062576 37.45018913 -26.36574184 36.06058638 -28 34 C-28 30.9375 -28 30.9375 -27 28 C-24.8125 25.9375 -24.8125 25.9375 -22 25 C-18.75 25.9375 -18.75 25.9375 -16 28 C-14.9375 30.9375 -14.9375 30.9375 -15 34 C-15.45375 34.598125 -15.9075 35.19625 -16.375 35.8125 C-18.99346024 39.33735033 -19.57713999 42.67014435 -19 47 C-16.25371082 51.02305032 -12.668369 53.53303029 -7.99682617 54.84057617 C-4.66235327 55.35332127 -1.36395885 55.68510675 2 55.9375 C3.73443359 56.10475586 3.73443359 56.10475586 5.50390625 56.27539062 C8.33462424 56.54442581 11.16474464 56.78512085 14 57 C13.85130802 55.57006622 13.69969823 54.14043566 13.546875 52.7109375 C13.46276367 51.91478027 13.37865234 51.11862305 13.29199219 50.29833984 C12.90687694 47.26700631 12.31717559 44.76606873 11 42 C10.154375 41.525625 9.30875 41.05125 8.4375 40.5625 C6 39 6 39 5 35.5625 C5 32 5 32 6 29.5625 C9.00274497 27.21660549 11.30310867 27.6039045 15 28 C15.99 28.66 16.98 29.32 18 30 C21.96 28.02 25.92 26.04 30 24 C29.14710033 21.75678791 29.14710033 21.75678791 26.59375 20.96484375 C17.50387862 17.53127883 17.50387862 17.53127883 8 17 C5.17345127 19.74185309 5.17345127 19.74185309 3 23 C-0.08846331 24.86933306 -1.80750582 25.00349989 -5.4375 24.9375 C-9.90466632 23.76192992 -11.71851539 22.20335403 -15 19 C-15.495 18.01 -15.495 18.01 -16 17 C-19.24384172 17 -21.05976672 17.16678602 -24.0390625 18.05859375 Z " fill="#0CCDE7" transform="translate(235,414)"/>
<path d="M0 0 C0.99 0 1.98 0 3 0 C6.28707946 6.69590261 6.28707946 6.69590261 5.49609375 10.2890625 C4.93427178 11.75534226 4.32617358 13.20509827 3.6640625 14.62890625 C2.13613312 20.08451293 4.41701319 25.80721657 6 31.0625 C7.03475025 34.50532712 7.96382068 37.73214607 8.4453125 41.296875 C8.75502174 44.31132346 8.75502174 44.31132346 11.875 46.1875 C12.90625 46.785625 13.9375 47.38375 15 48 C18.24944782 50.80124812 18.92278859 52.97694881 19.25 57.3125 C18.96871821 61.46140637 18.35641613 63.57939595 16 67 C14.85273438 67.55558594 13.70546875 68.11117187 12.5234375 68.68359375 C9.24899404 70.4778616 9.02930307 70.9275499 7.51171875 74.6796875 C7.20771389 76.0720561 6.93348366 77.47121892 6.6875 78.875 C6.40178865 80.26865082 6.1140572 81.66188915 5.82421875 83.0546875 C5.6950708 83.72314697 5.56592285 84.39160645 5.43286133 85.08032227 C5 87 5 87 3.8046875 90.33203125 C2.63661269 93.09044363 2.63661269 93.09044363 4.4375 95.8125 C6.55720355 100.13669524 6.25337079 103.40995292 5 108 C2.7968124 111.57068336 0.85207079 113.43270176 -3 115 C-4.58124024 115.09143226 -6.16612655 115.13004418 -7.75 115.125 C-13.38245483 115.54160169 -15.79766422 118.04649992 -19.40625 122.1875 C-21 124 -21 124 -23 125 C-23.35461624 126.96049862 -23.35461624 126.96049862 -23.4375 129.25 C-23.81026345 133.23035546 -24.39350119 135.83496573 -27 139 C-30.19782109 141.35628922 -33.01233818 142.81452736 -37 143 C-39.04556497 142.30842406 -40.9816584 141.50857913 -42.9375 140.59375 C-47.88917871 139.16826674 -53.26411601 141.97088617 -58 143.5 C-65.50637772 145.92364594 -65.50637772 145.92364594 -68.87890625 146.4453125 C-69.57886719 146.62835937 -70.27882813 146.81140625 -71 147 C-72.00014201 148.74218286 -72.99564679 150.48872484 -73.91015625 152.27734375 C-75.70808982 155.11923874 -77.88973115 155.94250859 -81 157 C-85.8338307 157.60422884 -88.96284325 156.72069259 -93 154 C-93.54785156 152.85144531 -94.09570312 151.70289063 -94.66015625 150.51953125 C-95.85870282 148.32909384 -96.54737084 147.2255164 -98.79980469 146.10327148 C-100.96497859 145.5194533 -103.09796038 145.10218262 -105.3125 144.75 C-106.78894694 144.48037668 -108.26424631 144.20438746 -109.73828125 143.921875 C-110.45218018 143.78612061 -111.1660791 143.65036621 -111.90161133 143.51049805 C-114.0343641 142.99163987 -115.90418485 142.27243929 -117.90625 141.37890625 C-120.77176546 139.80282259 -120.77176546 139.80282259 -123.1875 140.1875 C-125.03793014 140.96281822 -125.03793014 140.96281822 -126.75 142.125 C-130.24031338 143.48234409 -133.47840612 142.97316411 -137 142 C-140.44354117 139.82907187 -142.70446104 137.88661689 -144 134 C-144.28492597 131.97199752 -144.50580716 129.94340663 -144.71484375 127.90625 C-145.05187963 125.65318825 -145.79508673 123.92786123 -147 122 C-141.53690077 118.29919085 -135.38698168 115.47505512 -128.6875 116.1875 C-125.65869757 116.85486325 -123.66979538 117.56785811 -121 119 C-119.03395828 117.59310776 -117.07759204 116.17534751 -115.125 114.75 C-114.56941406 114.35425781 -114.01382813 113.95851563 -113.44140625 113.55078125 C-110.22190454 111.23244554 -110.22190454 111.23244554 -108.04418945 107.99780273 C-106.17318426 104.41808904 -102.53931437 103.1266686 -99.0625 101.3125 C-98.29776367 100.90604248 -97.53302734 100.49958496 -96.74511719 100.08081055 C-91.44658093 97.39752024 -87.15188497 96.32798658 -81.17578125 96.30078125 C-78.43969482 95.92254309 -77.65686878 95.11576504 -75.9375 93 C-75.298125 92.01 -74.65875 91.02 -74 90 C-71.00575376 88.50287688 -68.3082657 88.88592187 -65 89 C-64.04287109 89.35384766 -64.04287109 89.35384766 -63.06640625 89.71484375 C-60.85501061 90.23728934 -60.85501061 90.23728934 -58.67578125 88.63671875 C-57.89589844 87.99347656 -57.11601562 87.35023438 -56.3125 86.6875 C-55.52488281 86.05199219 -54.73726563 85.41648437 -53.92578125 84.76171875 C-51.91956491 83.13753141 -51.91956491 83.13753141 -51 81 C-51.04125 79.906875 -51.0825 78.81375 -51.125 77.6875 C-50.98858349 73.66321303 -50.49745913 72.10029409 -48 69 C-47.13375 68.54625 -46.2675 68.0925 -45.375 67.625 C-44.59125 67.08875 -43.8075 66.5525 -43 66 C-42.855625 64.9275 -42.71125 63.855 -42.5625 62.75 C-41.8175061 57.783374 -39.45313574 55.47425584 -36 52 C-35.34 52.33 -34.68 52.66 -34 53 C-33.89748328 58.12583611 -33.96409801 62.94997778 -35 68 C-33.515 68.495 -33.515 68.495 -32 69 C-31.67 69.66 -31.34 70.32 -31 71 C-28.71163778 71.41986946 -28.71163778 71.41986946 -26 71 C-25.195625 70.154375 -24.39125 69.30875 -23.5625 68.4375 C-21 66 -21 66 -17.875 66 C-13.48351648 67.52747253 -13.48351648 67.52747253 -12 70 C-11.5 73.4375 -11.5 73.4375 -12 77 C-14.0625 79.5 -14.0625 79.5 -17 81 C-20.75 80.875 -20.75 80.875 -24 80 C-24.33 79.34 -24.66 78.68 -25 78 C-26.32 78 -27.64 78 -29 78 C-29 79.32 -29 80.64 -29 82 C-26.93815438 83.96068772 -26.93815438 83.96068772 -24.25 85.625 C-23.36828125 86.21539063 -22.4865625 86.80578125 -21.578125 87.4140625 C-18.38182758 89.38972377 -18.38182758 89.38972377 -15 91 C-13.65753688 90.35191436 -12.32567199 89.68177416 -11 89 C-8.66796188 88.9222654 -6.33160941 88.91032272 -4 89 C-2.57364259 82.68327435 -1.24702151 76.35450323 0 70 C-1.175625 69.13375 -1.175625 69.13375 -2.375 68.25 C-5.41397937 65.64516054 -6.81382982 63.79228239 -7.23046875 59.78125 C-7.21628906 59.0284375 -7.20210937 58.275625 -7.1875 57.5 C-7.17783203 56.37078125 -7.17783203 56.37078125 -7.16796875 55.21875 C-7 53 -7 53 -6.36328125 50.890625 C-6.24339844 50.26671875 -6.12351562 49.6428125 -6 49 C-7.91422496 46.08457671 -7.91422496 46.08457671 -11 44 C-13.3329614 43.95833998 -15.6670386 43.95833998 -18 44 C-21.11960145 42.20788853 -22.63197634 41.13473963 -23.75 37.6875 C-22.54621727 33.37394521 -19.28423517 30.90721838 -16 28 C-13.08482708 29.07401108 -11.22189824 29.77810176 -9 32 C-8.773125 32.9075 -8.54625 33.815 -8.3125 34.75 C-6.54622279 39.12363881 -3.69871398 41.2111301 0 44 C-1.10355089 36.44392214 -2.59343789 29.25177382 -5 22 C-6.65 21.67 -8.3 21.34 -10 21 C-8.51991304 15.99886406 -6.3681664 11.67084403 -3.875 7.125 C-3.50246094 6.43664062 -3.12992188 5.74828125 -2.74609375 5.0390625 C-1.83500474 3.35705202 -0.91809685 1.67819564 0 0 Z M-54 94 C-54 94.66 -54 95.32 -54 96 C-54.99 96.33 -55.98 96.66 -57 97 C-58.03303893 100.12173808 -58.44771204 102.72640659 -58 106 C-55.43858513 109.80116151 -52.32694918 112.86542543 -49 116 C-47.99782373 116.99781898 -46.99675853 117.99676901 -46 119 C-45.195625 118.649375 -44.39125 118.29875 -43.5625 117.9375 C-38.69022514 116.65532241 -33.76730529 116.91833503 -29.03125 118.76953125 C-26.82892346 119.22420333 -26.82892346 119.22420333 -24.5703125 117.5859375 C-20.91184107 114.27811828 -18.29781278 111.80910149 -17.4765625 106.8203125 C-18.0413977 99.96159932 -20.08639778 96.2152955 -25.3125 91.75 C-28.87571409 89.08609643 -31.57828229 87.54465242 -36 87 C-37.05960938 86.82984375 -37.05960938 86.82984375 -38.140625 86.65625 C-45.05006504 86.14443963 -49.28956045 89.07798042 -54 94 Z M-93.65234375 109.375 C-95 111 -95 111 -98.375 111.9375 C-99.24125 111.958125 -100.1075 111.97875 -101 112 C-101.33498301 114.33165034 -101.33498301 114.33165034 -101 117 C-99.9790625 117.928125 -99.9790625 117.928125 -98.9375 118.875 C-97 121 -97 121 -97.0625 124.625 C-98 128 -98 128 -101 130 C-103.77034197 130.34629275 -105.34246471 130.39921785 -107.75 128.9375 C-109.57905748 126.10246091 -109.68754809 123.31199025 -110 120 C-113.4789459 121.54619818 -116.33449889 123.26045719 -119 126 C-119.41771804 129.66799815 -119.41771804 129.66799815 -119 133 C-108.46617336 137.56001917 -108.46617336 137.56001917 -97.1875 138.9375 C-94.17207524 137.6451751 -92.89930009 135.61972427 -91 133 C-87.5507568 131.2753784 -83.77868569 131.63389896 -80 132 C-76.04312923 133.68377479 -74.75567028 135.18948693 -73 139 C-64.88602288 137.92380059 -57.58739171 136.07677695 -50 133 C-48.80767807 127.19331964 -48.80767807 127.19331964 -51 122 C-52.95216041 119.82273224 -55.02640199 117.78529923 -57.125 115.75 C-57.68832031 115.19570313 -58.25164062 114.64140625 -58.83203125 114.0703125 C-60.21686028 112.70895515 -61.60783204 111.35385141 -63 110 C-64.32652008 112.09514746 -64.32652008 112.09514746 -63.1875 114.9375 C-62.08641672 118.10477753 -62.08641672 118.10477753 -60 121 C-59.625 124 -59.625 124 -60 127 C-61.625 128.9375 -61.625 128.9375 -64 130 C-67.1875 129.8125 -67.1875 129.8125 -70 129 C-71.49297212 126.01405576 -71.11755228 123.29146376 -71 120 C-70.67 119.34 -70.34 118.68 -70 118 C-69.41630557 114.58461856 -69.41630557 114.58461856 -70 111 C-72.81420633 108.67939769 -72.81420633 108.67939769 -76 107 C-76.66 106.01 -77.32 105.02 -78 104 C-85.17459035 102.38220021 -89.50654753 103.37991275 -93.65234375 109.375 Z " fill="#3848AB" transform="translate(315,460)"/>
<path d="M0 0 C0.804375 -0.00128906 1.60875 -0.00257813 2.4375 -0.00390625 C3.283125 -0.00003906 4.12875 0.00382812 5 0.0078125 C6.2684375 0.00201172 6.2684375 0.00201172 7.5625 -0.00390625 C8.366875 -0.00261719 9.17125 -0.00132812 10 0 C10.7425 0.00112793 11.485 0.00225586 12.25 0.00341797 C14 0.1328125 14 0.1328125 15 1.1328125 C15.07271741 3.48594805 15.08370868 5.84114918 15.0625 8.1953125 C15.05347656 9.48566406 15.04445313 10.77601563 15.03515625 12.10546875 C15.02355469 13.10449219 15.01195312 14.10351562 15 15.1328125 C19.29 15.1328125 23.58 15.1328125 28 15.1328125 C29.93395001 19.00071253 30.23289353 20.2828584 30.125 24.3828125 C30.10695313 25.27484375 30.08890625 26.166875 30.0703125 27.0859375 C30.04710937 27.76140625 30.02390625 28.436875 30 29.1328125 C24.73312281 30.88843823 20.55604105 31.22541318 15 31.1328125 C15.11817917 35.08402478 15.24242233 39.03499479 15.37231445 42.98583984 C15.43698251 44.99176057 15.49683106 46.99783478 15.55664062 49.00390625 C15.59853516 50.26074219 15.64042969 51.51757812 15.68359375 52.8125 C15.72025146 53.97507324 15.75690918 55.13764648 15.79467773 56.33544922 C15.81821659 59.0863626 15.81821659 59.0863626 17 61.1328125 C22.24443104 61.30861976 22.24443104 61.30861976 27.375 60.5078125 C27.91125 60.3840625 28.4475 60.2603125 29 60.1328125 C31.46301423 62.59582673 31.76766521 64.40641286 32.625 67.7578125 C32.88539063 68.76070312 33.14578125 69.76359375 33.4140625 70.796875 C33.60742188 71.56773437 33.80078125 72.33859375 34 73.1328125 C28.35652639 77.7283928 22.46012173 78.42246981 15.3125 77.9453125 C7.65685392 76.98702579 3.64150602 74.13472108 -1.484375 68.55859375 C-5.7562973 61.72131605 -5.19777252 54.14538388 -5 46.3828125 C-4.9489023 44.34656898 -4.90686392 42.3100728 -4.875 40.2734375 C-4.85179687 39.38172852 -4.82859375 38.49001953 -4.8046875 37.57128906 C-5.01374971 34.96114736 -5.67779784 33.36988486 -7 31.1328125 C-18.87264919 30.53817976 -18.87264919 30.53817976 -30 34.1328125 C-34.29115015 38.42396265 -34.1880677 43.32187717 -34.31640625 49.08203125 C-34.33718735 49.85464798 -34.35796844 50.62726471 -34.37937927 51.42329407 C-34.44471038 53.8888773 -34.50368315 56.35456611 -34.5625 58.8203125 C-34.60570087 60.49284941 -34.64931566 62.16537569 -34.69335938 63.83789062 C-34.80115324 67.93609132 -34.90034835 72.03437334 -35 76.1328125 C-40.94 76.1328125 -46.88 76.1328125 -53 76.1328125 C-53.33 56.0028125 -53.66 35.8728125 -54 15.1328125 C-50.43235416 13.94359722 -47.7532277 14.07797034 -44 14.2578125 C-42.14375 14.32355469 -42.14375 14.32355469 -40.25 14.390625 C-37 15.1328125 -37 15.1328125 -35.0625 17.6875 C-34.711875 18.49445313 -34.36125 19.30140625 -34 20.1328125 C-33.01 19.235625 -33.01 19.235625 -32 18.3203125 C-27.42178491 14.98203066 -23.28893937 13.00796126 -17.5625 13.3203125 C-16.716875 13.5884375 -15.87125 13.8565625 -15 14.1328125 C-14.505 15.1228125 -14.505 15.1228125 -14 16.1328125 C-13.34 15.8028125 -12.68 15.4728125 -12 15.1328125 C-9.6599583 15.41523133 -7.32495277 15.74532037 -5 16.1328125 C-5.01160156 15.06160156 -5.02320313 13.99039062 -5.03515625 12.88671875 C-5.04453299 11.48958507 -5.05363331 10.09244951 -5.0625 8.6953125 C-5.07087891 7.98826172 -5.07925781 7.28121094 -5.08789062 6.55273438 C-5.09653588 4.74587691 -5.05220011 2.93893647 -5 1.1328125 C-3.4779041 -0.3892834 -2.11789918 0.00321729 0 0 Z M-14 18.1328125 C-14 20.7728125 -14 23.4128125 -14 26.1328125 C-13.67 26.1328125 -13.34 26.1328125 -13 26.1328125 C-13 23.4928125 -13 20.8528125 -13 18.1328125 C-13.33 18.1328125 -13.66 18.1328125 -14 18.1328125 Z " fill="#FCFDFC" transform="translate(615,475.8671875)"/>
<path d="M0 0 C0.66 0.33 1.32 0.66 2 1 C1.57847656 1.38671875 1.15695313 1.7734375 0.72265625 2.171875 C-0.09912109 2.95304687 -0.09912109 2.95304687 -0.9375 3.75 C-1.75541016 4.51570313 -1.75541016 4.51570313 -2.58984375 5.296875 C-4.20768347 7.250831 -4.76660456 8.47734295 -5 11 C-4.34 11.99 -3.68 12.98 -3 14 C-1.41665343 18.39818491 -0.61597478 21.8027449 -2.0625 26.3125 C-5.06041442 30.47089742 -7.35601811 32.70393615 -12.4921875 33.62890625 C-16.31684401 34.67416814 -16.31684401 34.67416814 -17.7421875 38.44921875 C-18.1498671 39.85359557 -18.52665878 41.26724112 -18.875 42.6875 C-19.07351562 43.38294922 -19.27203125 44.07839844 -19.4765625 44.79492188 C-20.68464569 49.16606071 -21.44585703 53.5020097 -22 58 C-21.4225 58.20625 -20.845 58.4125 -20.25 58.625 C-17.01537126 60.60171756 -15.74111207 62.64214101 -14 66 C-13.43633767 69.57444406 -13.62491854 72.84349883 -14.75 76.3125 C-16.27147726 78.36649431 -17.83609555 79.64755972 -20 81 C-20.66 81 -21.32 81 -22 81 C-21.72285156 82.02480469 -21.44570312 83.04960938 -21.16015625 84.10546875 C-20.79418709 85.46612331 -20.42830635 86.82680166 -20.0625 88.1875 C-19.88009766 88.86103516 -19.69769531 89.53457031 -19.50976562 90.22851562 C-18.5511642 93.80148458 -17.67116718 97.36156738 -17 101 C-15.07942708 100.93489583 -13.15885417 100.86979167 -11.23828125 100.8046875 C-8.54898909 101.03935523 -6.45464018 101.90809351 -4 103 C-2.15513585 101.59838243 -0.32438097 100.17817703 1.5 98.75 C2.5209375 97.96109375 3.541875 97.1721875 4.59375 96.359375 C5.3878125 95.58078125 6.181875 94.8021875 7 94 C7 92.68 7 91.36 7 90 C4.03824877 90.61277612 2.61941217 91.25372522 0 93 C-6.13509061 93.54777595 -6.13509061 93.54777595 -8.875 91.8125 C-10.38885105 89.37351775 -10.93259082 87.8985946 -11 85 C-9.5 81.6875 -9.5 81.6875 -7 79 C-2.84006464 78.29359588 -0.03865769 78.85787371 3.6875 80.625 C6.76274324 82.28698934 6.76274324 82.28698934 9.16015625 81.4609375 C11.27309833 80.0962537 11.27309833 80.0962537 11.609375 77.3125 C11.65578125 76.219375 11.7021875 75.12625 11.75 74 C11.80027344 72.8346875 11.85054687 71.669375 11.90234375 70.46875 C11.93457031 69.3240625 11.96679688 68.179375 12 67 C12.06316406 66.0409375 12.12632812 65.081875 12.19140625 64.09375 C12.39366864 59.76142017 12.46390722 57.69586083 10 54 C9.34 53.34 8.68 52.68 8 52 C8 51.34 8 50.68 8 50 C4.83695138 50.95627051 2.20923982 51.86220793 -0.5625 53.6875 C-3 55 -3 55 -5.5625 55 C-8.9154573 53.62442777 -10.19325552 52.12705776 -12 49 C-12 45.45665039 -11.64741834 43.74333217 -9.3125 41.0625 C-6.13226446 39.6013107 -4.34732051 40.11193537 -1 41 C-0.154375 41.391875 0.69125 41.78375 1.5625 42.1875 C4.02427749 43.23375337 4.02427749 43.23375337 6.75 42.4375 C9.12206427 41.18740869 9.12206427 41.18740869 10.0625 38.9375 C9.94325521 33.33299494 7.29213315 28.50166825 3.6875 24.3125 C2 22 2 22 2.0625 18.875 C3.01197373 15.96328056 3.52583807 14.74107692 6 13 C7.875 12.125 7.875 12.125 10 12 C14.63076923 14.26153846 14.63076923 14.26153846 16 17 C16.13040853 19.93419185 16.14384749 22.4677643 15.375 25.3125 C14.80507032 29.39699605 15.95919419 33.05181928 17 37 C22.57830016 37.12469099 22.57830016 37.12469099 28 36 C27.979375 36.7425 27.95875 37.485 27.9375 38.25 C27.8887336 40.88399684 27.8887336 40.88399684 28.5078125 42.89453125 C29.39302676 46.68128115 29.09823393 50.28188271 28 54 C26.17196763 56.31978377 24.55217324 57.38535979 22 59 C21.34 59 20.68 59 20 59 C20 65.27 20 71.54 20 78 C21.32 78.33 22.64 78.66 24 79 C28.60650769 83.08004967 29.15655474 85.80041991 29.62109375 91.7109375 C30.02249448 94.13589449 30.79862685 95.8696298 32 98 C31.34 98.66 30.68 99.32 30 100 C28.68 100 27.36 100 26 100 C26 99.34 26 98.68 26 98 C25.43152344 98.3403125 24.86304688 98.680625 24.27734375 99.03125 C21.61921826 100.16197919 20.38030728 99.9181569 17.5625 99.5 C10.8425975 99.29970484 6.61288488 103.33700716 1.6875 107.421875 C-1.01894543 109.69071061 -1.01894543 109.69071061 -1.90478516 112.05029297 C-3.33434583 114.59520414 -4.46436895 114.89479176 -7.2109375 115.7734375 C-8.04367188 116.04027344 -8.87640625 116.30710937 -9.734375 116.58203125 C-10.60578125 116.84371094 -11.4771875 117.10539063 -12.375 117.375 C-13.67050781 117.80232422 -13.67050781 117.80232422 -14.9921875 118.23828125 C-21.42940173 120.23500974 -21.42940173 120.23500974 -24.27978516 119.06103516 C-24.84745605 118.71089355 -25.41512695 118.36075195 -26 118 C-26.32906764 109.77330896 -26.32906764 109.77330896 -24.75 106.0625 C-23.71826243 101.84957158 -25.16631611 99.6080416 -26.90625 95.74609375 C-28.67328603 91.30957116 -29.3198437 86.70739752 -30 82 C-30.9075 81.79375 -31.815 81.5875 -32.75 81.375 C-36.94718374 79.59926842 -38.05874368 78.10650376 -40 74 C-40.86017086 69.92160368 -40.90773173 66.5724256 -38.7890625 62.90234375 C-36.11776688 59.60051389 -34.27713029 57.74384875 -30 57 C-29.97421875 56.42894531 -29.9484375 55.85789062 -29.921875 55.26953125 C-29.39875312 47.79126614 -27.38345356 41.08084329 -25 34 C-23.67891571 31.1684275 -23.67891571 31.1684275 -24.8125 29.203125 C-25.204375 28.55859375 -25.59625 27.9140625 -26 27.25 C-28.19324353 23.16498971 -28.18457403 20.55605397 -27 16 C-26.67 15.34 -26.34 14.68 -26 14 C-24.33499557 13.65846063 -22.66821323 13.32550502 -21 13 C-20.34 12.34 -19.68 11.68 -19 11 C-17.68 11 -16.36 11 -15 11 C-8.10880375 10.47335573 -4.27649247 4.91930553 0 0 Z " fill="#2862B2" transform="translate(168,448)"/>
<path d="M0 0 C-0.50771472 5.96564796 -2.38592128 10.63809899 -5 16 C-6.2065625 15.6390625 -7.413125 15.278125 -8.65625 14.90625 C-10.2706711 14.43694154 -11.88526373 13.9682229 -13.5 13.5 C-14.68722656 13.14228516 -14.68722656 13.14228516 -15.8984375 12.77734375 C-23.5646446 10.57802204 -30.3717044 10.00851153 -38 13 C-40.12894624 14.61548201 -40.12894624 14.61548201 -41 17 C-41.41142752 20.1154892 -41.41142752 20.1154892 -40 23 C-32.81748349 26.15696656 -25.13040277 28.06073331 -17.57617188 30.13085938 C-9.76456093 32.40342214 -1.90436999 35.42848751 2.5625 42.625 C4.99235816 48.49715722 5.37408558 55.36414524 3.1171875 61.3359375 C-1.73952187 69.73064707 -8.91264756 74.15107118 -18 77 C-31.92441155 80.37493763 -47.29186305 77.16681695 -60 71 C-60.99 70.34 -61.98 69.68 -63 69 C-61.33333333 64 -59.66666667 59 -58 54 C-54.90803689 54.68947223 -52.10883133 55.71836173 -49.1875 56.9375 C-39.75866817 60.71177766 -30.23911857 63.20464062 -20.3125 59.5625 C-17.21845571 58.33107729 -17.21845571 58.33107729 -16 57 C-15.41511438 54.62875402 -15.41511438 54.62875402 -16 52 C-21.03113042 47.75576852 -26.57608297 46.5346759 -32.875 45 C-44.04383335 42.25677777 -53.4338897 39.17747097 -60 29 C-61.89297148 22.92395868 -62.12696367 15.69910978 -59.5625 9.8125 C-54.97843097 2.03395777 -48.0295975 -2.92613743 -39.42578125 -5.375 C-26.32460545 -7.76518031 -11.82826396 -6.48364099 0 0 Z " fill="#FCFCFC" transform="translate(434,476)"/>
<path d="M0 0 C0.5067183 3.54073904 1.00417029 7.08272111 1.5 10.625 C1.64308594 11.62402344 1.78617188 12.62304688 1.93359375 13.65234375 C2.60352182 18.46944557 3.19978289 23.12196787 3 28 C0 28 0 28 -1.60546875 26.46875 C-2.12753906 25.8190625 -2.64960938 25.169375 -3.1875 24.5 C-3.71730469 23.8503125 -4.24710938 23.200625 -4.79296875 22.53125 C-5.19128906 22.0259375 -5.58960938 21.520625 -6 21 C-6.68804673 22.64560485 -7.37538101 24.29150756 -8.0625 25.9375 C-8.52269531 27.03449219 -8.98289062 28.13148438 -9.45703125 29.26171875 C-10.52886038 31.83562314 -11.56160338 34.42179053 -12.57421875 37.01953125 C-29.85513543 80.96301988 -63.90074026 117.70865653 -104 142 C-105.65708984 143.01320313 -105.65708984 143.01320313 -107.34765625 144.046875 C-130.1636367 157.56357525 -155.04133084 165.13965343 -181 170 C-182.29164063 170.2475 -183.58328125 170.495 -184.9140625 170.75 C-194.27749478 172.21877369 -203.67167481 172.17486695 -213.125 172.1875 C-213.81456787 172.18867828 -214.50413574 172.18985657 -215.21459961 172.19107056 C-227.74791075 172.18864394 -227.74791075 172.18864394 -234 171 C-234 170.34 -234 169.68 -234 169 C-231.63439292 167.81719646 -229.66069312 167.84714127 -227.05273438 167.76123047 C-162.66475006 165.51686629 -102.1409594 133.13070708 -58.25390625 87.12109375 C-54.74100891 83.3306059 -54.74100891 83.3306059 -52 79 C-51.34 79 -50.68 79 -50 79 C-49.75378906 78.44054687 -49.50757813 77.88109375 -49.25390625 77.3046875 C-47.77220334 74.58130833 -45.96176451 72.47414647 -43.9375 70.125 C-39.17006264 64.37670232 -35.17808735 58.28015846 -31.23291016 51.95361328 C-29.91082328 49.85869463 -28.55905259 47.78544711 -27.19921875 45.71484375 C-21.28838894 36.71019668 -15.79554287 27.65738356 -11 18 C-11.84304688 18.23976563 -12.68609375 18.47953125 -13.5546875 18.7265625 C-14.65039062 19.02304687 -15.74609375 19.31953125 -16.875 19.625 C-17.96554687 19.92664063 -19.05609375 20.22828125 -20.1796875 20.5390625 C-21.11039063 20.69117188 -22.04109375 20.84328125 -23 21 C-23.99 20.01 -23.99 20.01 -25 19 C-19.43160089 13.84088361 -13.81348207 8.75708307 -8 3.875 C-6.6696875 2.75738281 -6.6696875 2.75738281 -5.3125 1.6171875 C-3 0 -3 0 0 0 Z " fill="#2D5EB2" transform="translate(329,410)"/>
<path d="M0 0 C5.94 0 11.88 0 18 0 C19.125 7.875 19.125 7.875 19.11352539 11.19116211 C19.11344986 11.93140121 19.11337433 12.67164032 19.11329651 13.43431091 C19.10813522 14.20751175 19.10297394 14.98071259 19.09765625 15.77734375 C19.0962413 16.58869278 19.09482635 17.40004181 19.09336853 18.23597717 C19.08781357 20.80319047 19.07526967 23.37031348 19.0625 25.9375 C19.05747917 27.68814977 19.05291729 29.43880093 19.04882812 31.18945312 C19.03785893 35.4596697 19.02062582 39.72981959 19 44 C23.69411656 40.05763986 28.06925385 35.97842523 32.30078125 31.5390625 C34 30 34 30 36 30 C36.2475 29.4225 36.495 28.845 36.75 28.25 C38.3472668 25.37491976 39.27338946 23.93819304 42 22 C45.6140043 21.64152278 49.13867751 21.94705284 52.75 22.25 C54.22533203 22.34861328 54.22533203 22.34861328 55.73046875 22.44921875 C58.15562231 22.61403501 60.57768589 22.79824623 63 23 C61.4694712 26.67704691 59.26616921 28.89903891 56.39453125 31.625 C55.49412109 32.49640625 54.59371094 33.3678125 53.66601562 34.265625 C51.75755378 36.09440432 49.84343759 37.91730045 47.92382812 39.734375 C47.02728516 40.60578125 46.13074219 41.4771875 45.20703125 42.375 C44.3766333 43.16648437 43.54623535 43.95796875 42.69067383 44.7734375 C40.75488513 46.81930889 40.75488513 46.81930889 41.13427734 49.13793945 C42.36522467 51.78555232 44.01243644 53.88795935 45.8125 56.1875 C50.38742832 62.13784889 54.72403899 68.22826311 59.01293945 74.38745117 C59.50238037 75.08717041 59.99182129 75.78688965 60.49609375 76.5078125 C60.93107178 77.13316895 61.3660498 77.75852539 61.81420898 78.40283203 C63.0465732 80.14406052 63.0465732 80.14406052 65 82 C64.505 83.485 64.505 83.485 64 85 C45.6593855 86.01348766 45.6593855 86.01348766 39.84765625 81.61328125 C37.58864498 78.5125997 35.78018804 75.39561827 34 72 C32.67122475 70.06564357 31.31893922 68.14710415 29.9375 66.25 C28.95620861 64.83480425 27.97616578 63.41873612 27 62 C23.60080363 63.45679845 21.23135406 65.02156288 19 68 C18.73430425 70.69199427 18.66194356 72.96091659 18.8125 75.625 C19.09171793 82.81656415 19.09171793 82.81656415 18 85 C11.73 84.67 5.46 84.34 -1 84 C-1.02288408 76.29616151 -1.04110321 68.59234268 -1.05181217 60.88847923 C-1.05696018 57.30861491 -1.06390429 53.72877567 -1.07543945 50.14892578 C-1.12802285 33.40084824 -0.9245823 16.7298435 0 0 Z " fill="#FBFCFB" transform="translate(832,468)"/>
<path d="M0 0 C6.53600735 4.16733802 9.43529111 9.52921816 11.53831482 16.88214111 C12.00166013 19.00761541 12.12057655 20.86242229 12.11352539 23.03417969 C12.11344986 23.81468689 12.11337433 24.59519409 12.11329651 25.39935303 C12.10813522 26.23178528 12.10297394 27.06421753 12.09765625 27.921875 C12.0962413 28.78186096 12.09482635 29.64184692 12.09336853 30.52789307 C12.08778097 33.26863109 12.07523075 36.00928676 12.0625 38.75 C12.05748339 40.6106759 12.05292077 42.47135309 12.04882812 44.33203125 C12.03781561 48.88805246 12.02055951 53.44401228 12 58 C9.41879934 59.29060033 7.50580171 59.13272333 4.625 59.125 C3.66851563 59.12757813 2.71203125 59.13015625 1.7265625 59.1328125 C-0.70937761 59.01415639 -2.70972475 58.82387729 -5 58 C-6.25 55.9375 -6.25 55.9375 -7 54 C-7.825 54.61875 -8.65 55.2375 -9.5 55.875 C-15.08150117 59.57849019 -21.38017418 60.58068648 -28 60 C-35.12263196 58.31467949 -39.83014778 55.87358807 -44.3125 49.9375 C-46.81727402 45.15379223 -46.86012425 40.25128492 -46 35 C-44.28112416 30.43661282 -41.78379925 27.18787178 -37.625 24.625 C-30.59847131 21.47517679 -24.64190528 20.72514104 -17.0625 20.875 C-16.18787109 20.88402344 -15.31324219 20.89304687 -14.41210938 20.90234375 C-12.27461936 20.9257043 -10.13727214 20.96156753 -8 21 C-8.98148878 16.79376745 -8.98148878 16.79376745 -11.7421875 13.6875 C-19.65554293 11.13667481 -27.07974895 12.14303898 -34.5625 15.6875 C-35.7690625 16.3371875 -35.7690625 16.3371875 -37 17 C-37.99 16.67 -38.98 16.34 -40 16 C-40.984375 13.85546875 -40.984375 13.85546875 -41.75 11.1875 C-42.01296875 10.31480469 -42.2759375 9.44210937 -42.546875 8.54296875 C-43.02270375 5.872585 -43.09961281 4.47145985 -42 2 C-40.3984375 0.8046875 -40.3984375 0.8046875 -38.375 -0.125 C-37.72273438 -0.43695313 -37.07046875 -0.74890625 -36.3984375 -1.0703125 C-25.02551602 -5.47870877 -10.7813725 -6.50530183 0 0 Z M-26 35 C-28.32038095 37.82568546 -28.32038095 37.82568546 -27.8125 41.0625 C-27.26245502 44.29740953 -27.26245502 44.29740953 -24 46 C-18.46439803 46.81188829 -13.64570129 46.28598384 -9 43 C-7.01637897 39.5737455 -6.93505611 36.88364468 -7 33 C-16.71031744 32.62256985 -16.71031744 32.62256985 -26 35 Z " fill="#FCFCFB" transform="translate(536,494)"/>
<path d="M0 0 C6.31170196 6.87381282 7.29792292 13.95035712 7.1953125 22.9921875 C7.1924826 23.93812775 7.18965271 24.88406799 7.18673706 25.8586731 C7.17558932 28.86424694 7.15049465 31.86951702 7.125 34.875 C7.11496321 36.91926651 7.10583859 38.96353772 7.09765625 41.0078125 C7.07566767 46.00532444 7.04117509 51.0026108 7 56 C1.06 56 -4.88 56 -11 56 C-12.47916908 53.04166184 -12.06058064 50.06832184 -11.9921875 46.83203125 C-11.97465608 45.36654356 -11.95774928 43.9010483 -11.94140625 42.43554688 C-11.91057421 40.1292614 -11.87521944 37.82335755 -11.82861328 35.51733398 C-11.7859377 33.28885349 -11.76273127 31.06081167 -11.7421875 28.83203125 C-11.72356659 28.15259964 -11.70494568 27.47316803 -11.6857605 26.77314758 C-11.65904055 21.71657178 -12.73287503 18.4183135 -15 14 C-17.66484365 11.33515635 -19.09879828 11.67079164 -22.8125 11.625 C-26.77688627 11.69154845 -28.66654675 11.81692763 -32.1875 13.75 C-35.61910337 18.00992143 -35.18458383 22.72960815 -35.28125 28.01171875 C-35.29965942 28.78054886 -35.31806885 29.54937897 -35.33703613 30.34150696 C-35.41559646 33.62442365 -35.48372061 36.90753457 -35.55224609 40.19067383 C-35.60382279 42.58946336 -35.66109977 44.98806877 -35.71875 47.38671875 C-35.73232544 48.13459152 -35.74590088 48.88246429 -35.7598877 49.65299988 C-35.88711822 54.88711822 -35.88711822 54.88711822 -37 56 C-38.34267413 56.08631874 -39.68974322 56.10706473 -41.03515625 56.09765625 C-41.84404297 56.09443359 -42.65292969 56.09121094 -43.48632812 56.08789062 C-44.33646484 56.07951172 -45.18660156 56.07113281 -46.0625 56.0625 C-46.91650391 56.05798828 -47.77050781 56.05347656 -48.65039062 56.04882812 C-50.76695663 56.03700373 -52.88348685 56.01906769 -55 56 C-55.94119323 52.81472161 -56.12659234 49.95212813 -56.12939453 46.63647461 C-56.13254669 45.5653392 -56.13569885 44.4942038 -56.13894653 43.39060974 C-56.1369223 42.23948196 -56.13489807 41.08835419 -56.1328125 39.90234375 C-56.13376923 38.71653214 -56.13472595 37.53072052 -56.13571167 36.30897522 C-56.13639197 33.80323229 -56.13454813 31.29748759 -56.13037109 28.79174805 C-56.12501605 24.94901591 -56.13032363 21.1064004 -56.13671875 17.26367188 C-56.13605803 14.83072891 -56.13477701 12.39778601 -56.1328125 9.96484375 C-56.13483673 8.81169174 -56.13686096 7.65853973 -56.13894653 6.47044373 C-56.13579437 5.40246048 -56.13264221 4.33447723 -56.12939453 3.23413086 C-56.12859894 2.29355331 -56.12780334 1.35297577 -56.12698364 0.38389587 C-56 -2 -56 -2 -55 -5 C-51.63025113 -5.8985997 -48.34558822 -6.14852081 -44.875 -6.25 C-43.60269531 -6.28867187 -43.60269531 -6.28867187 -42.3046875 -6.328125 C-39.51362873 -5.93075392 -38.71070572 -5.18885328 -37 -3 C-36.67 -2.34 -36.34 -1.68 -36 -1 C-35.3709375 -1.34933594 -34.741875 -1.69867188 -34.09375 -2.05859375 C-22.49587097 -8.22433366 -10.61332282 -8.98232221 0 0 Z " fill="#FCFCFC" transform="translate(811,496)"/>
<path d="M0 0 C-0.33 21.12 -0.66 42.24 -1 64 C11.78993795 63.96039595 11.78993795 63.96039595 24.57983398 63.90991211 C26.1769199 63.90699297 27.77400655 63.90444441 29.37109375 63.90234375 C30.20805786 63.89722778 31.04502197 63.89211182 31.90734863 63.88684082 C33.93858265 63.88653076 35.96972471 63.93759812 38 64 C39 65 39 65 39.09765625 68.37890625 C39.09098369 69.77347077 39.07902532 71.16801743 39.0625 72.5625 C39.05798828 73.27341797 39.05347656 73.98433594 39.04882812 74.71679688 C39.03700864 76.47790013 39.01907263 78.23896036 39 80 C34.24792523 81.21594189 29.61491113 81.14433619 24.74609375 81.1328125 C23.84939468 81.13376923 22.95269562 81.13472595 22.02882385 81.13571167 C20.13176402 81.13639107 18.23470183 81.13455353 16.33764648 81.13037109 C13.47178744 81.1250635 10.60608828 81.13030137 7.74023438 81.13671875 C5.88802049 81.13605707 4.03580671 81.13477405 2.18359375 81.1328125 C0.9219767 81.13584885 0.9219767 81.13584885 -0.36512756 81.13894653 C-7.00304136 81.11354827 -13.32320831 80.55639931 -20 80 C-20 53.6 -20 27.2 -20 0 C-2 -1 -2 -1 0 0 Z " fill="#FCFDFD" transform="translate(677,472)"/>
<path d="M0 0 C2.97922593 -0.02683987 5.95821295 -0.04676037 8.9375 -0.0625 C10.21270508 -0.07506836 10.21270508 -0.07506836 11.51367188 -0.08789062 C12.32255859 -0.09111328 13.13144531 -0.09433594 13.96484375 -0.09765625 C14.7137085 -0.10289307 15.46257324 -0.10812988 16.23413086 -0.11352539 C18 0 18 0 19 1 C19.07271741 3.35313555 19.08370868 5.70833668 19.0625 8.0625 C19.05347656 9.35285156 19.04445313 10.64320313 19.03515625 11.97265625 C19.02355469 12.97167969 19.01195312 13.97070312 19 15 C19.99902344 14.98839844 20.99804688 14.97679687 22.02734375 14.96484375 C23.31769531 14.95582031 24.60804688 14.94679688 25.9375 14.9375 C27.22527344 14.92589844 28.51304687 14.91429687 29.83984375 14.90234375 C33 15 33 15 34 16 C34.14426614 20.66845228 34.04208415 25.32865953 34 30 C29.05 30.33 24.1 30.66 19 31 C19.11356669 35.43806659 19.24032829 39.87506727 19.375 44.3125 C19.4059375 45.57513672 19.436875 46.83777344 19.46875 48.13867188 C19.50742187 49.34716797 19.54609375 50.55566406 19.5859375 51.80078125 C19.63306885 53.47394409 19.63306885 53.47394409 19.68115234 55.1809082 C19.805249 58.20368786 19.805249 58.20368786 22 61 C26.32393311 61.27896343 29.83136246 61.1589934 34 60 C34.70133599 61.57725347 35.385583 63.16211333 36.0625 64.75 C36.44535156 65.63171875 36.82820313 66.5134375 37.22265625 67.421875 C38.05623793 70.18651777 38.17302107 71.383703 37 74 C30.64353258 77.81388045 24.92549547 78.93441875 17.5703125 77.5390625 C11.70819976 76.02453489 6.79296206 73.86947914 3 69 C0.46502743 63.92336938 -0.36478398 60.30431339 -0.29296875 54.53515625 C-0.28872391 53.85698349 -0.28447906 53.17881073 -0.28010559 52.48008728 C-0.26347941 50.34046598 -0.22586174 48.20183053 -0.1875 46.0625 C-0.17243222 44.60092518 -0.1587475 43.13933542 -0.14648438 41.67773438 C-0.11362977 38.11817603 -0.06196241 34.55918444 0 31 C-1.11375 31.020625 -2.2275 31.04125 -3.375 31.0625 C-7 31 -7 31 -9 30 C-9 25.05 -9 20.1 -9 15 C-6.03 15 -3.06 15 0 15 C0 10.05 0 5.1 0 0 Z " fill="#FDFDFC" transform="translate(448,476)"/>
<path d="M0 0 C2.9375 1.75 2.9375 1.75 4.9375 4.75 C4.49305556 10.19444444 4.49305556 10.19444444 1.9375 12.75 C1.21218718 14.73284486 1.21218718 14.73284486 0.875 17 C0.71902344 17.74765625 0.56304687 18.4953125 0.40234375 19.265625 C1.15996626 22.78276309 2.81648449 24.25940516 5.6003418 26.4609375 C10.18941632 28.99204723 15.23205004 29.1854838 20.375 29.625 C21.48810547 29.74101562 22.60121094 29.85703125 23.74804688 29.9765625 C26.47643318 30.257598 29.20485817 30.51465286 31.9375 30.75 C32.2675 29.1 32.5975 27.45 32.9375 25.75 C33.370625 26.41 33.80375 27.07 34.25 27.75 C34.806875 28.41 35.36375 29.07 35.9375 29.75 C37.68233102 29.75 39.42725992 29.74229399 41.171875 29.71484375 C46.22523237 29.65991595 50.95522317 29.91962053 55.9375 30.75 C56.5975 30.75 57.2575 30.75 57.9375 30.75 C58.040625 29.80125 58.14375 28.8525 58.25 27.875 C58.9375 24.75 58.9375 24.75 61.9375 22.75 C65.32101683 22.93125983 67.96157955 23.20104475 70.9375 24.875 C72.64407378 28.07482583 71.88946177 30.3586362 70.9375 33.75 C68.8125 36.25 68.8125 36.25 65.9375 37.75 C62.25 37.4375 62.25 37.4375 58.9375 36.75 C57.9475 37.245 57.9475 37.245 56.9375 37.75 C56.57909778 40.07961443 56.24901288 42.41365343 55.9375 44.75 C54.84397549 47.88477027 53.46475043 50.80458846 51.9375 53.75 C45.5034846 53.75 39.54858472 51.21698832 34.9375 46.75 C33.4591774 43.79335481 33.87717217 41.00770263 33.9375 37.75 C29.68785873 37.60486198 25.43885365 37.51597963 21.1875 37.4375 C19.9809375 37.39560547 18.774375 37.35371094 17.53125 37.31054688 C15.79101562 37.28637695 15.79101562 37.28637695 14.015625 37.26171875 C12.41315918 37.22244263 12.41315918 37.22244263 10.77832031 37.18237305 C6.9834954 37.94062055 6.08138293 39.63945022 3.9375 42.75 C0.19775568 44.61987216 -4.53040828 44.05641834 -8.5625 43.25 C-9.305 43.0025 -9.305 43.0025 -10.0625 42.75 C-10.0625 43.41 -10.0625 44.07 -10.0625 44.75 C-11.453125 46.2578125 -11.453125 46.2578125 -13.3125 47.875 C-13.91578125 48.41382813 -14.5190625 48.95265625 -15.140625 49.5078125 C-17.0625 50.75 -17.0625 50.75 -21.0625 50.75 C-21.5 47.6875 -21.5 47.6875 -21.0625 43.75 C-19.5390625 42.04296875 -19.5390625 42.04296875 -17.625 40.375 C-14.81440955 37.92508235 -14.81440955 37.92508235 -13.5859375 34.51953125 C-13.52884741 32.97031384 -13.47931329 31.42079873 -13.4375 29.87109375 C-12.96365115 27.19088622 -12.0601816 26.47158694 -10 24.75 C-7.9602527 22.99464054 -7.15925053 22.18084222 -6.5625 19.5234375 C-6.43820196 14.75350032 -7.09066138 12.49710086 -10.0625 8.75 C-9.93100006 5.52825143 -9.65092409 3.52564994 -7.6875 0.9375 C-4.66239632 -1.27315269 -3.48941915 -1.42425271 0 0 Z " fill="#14A5D2" transform="translate(216.0625,439.25)"/>
<path d="M0 0 C1.12535156 0.00580078 1.12535156 0.00580078 2.2734375 0.01171875 C3.02367187 0.00785156 3.77390625 0.00398438 4.546875 0 C10.14682697 0.01010822 10.14682697 0.01010822 11.2734375 1.13671875 C11.37259545 3.03370724 11.40143064 4.93440662 11.40283203 6.83398438 C11.40598419 8.05194702 11.40913635 9.26990967 11.41238403 10.52478027 C11.41059425 11.8641768 11.4085433 13.20357299 11.40625 14.54296875 C11.4069231 15.90677915 11.40789317 17.27058943 11.40914917 18.63439941 C11.41062588 21.49602396 11.40847247 24.35761735 11.40380859 27.21923828 C11.39811131 30.89490489 11.40139046 34.57049849 11.40738106 38.24616241 C11.41098741 41.06333979 11.40984775 43.88049973 11.40725327 46.69767761 C11.4065842 48.05331938 11.40741171 49.40896271 11.40973282 50.76460266 C11.41226051 52.65621919 11.40772764 54.54784124 11.40283203 56.43945312 C11.40203644 57.51787476 11.40124084 58.59629639 11.40042114 59.70739746 C11.2734375 62.13671875 11.2734375 62.13671875 10.2734375 63.13671875 C7.80180064 63.26354498 5.37053139 63.32192126 2.8984375 63.32421875 C2.21265625 63.33646484 1.526875 63.34871094 0.8203125 63.36132812 C-2.91953047 63.37224206 -4.5365362 63.26340295 -7.7265625 61.13671875 C-8.05609131 58.62510681 -8.05609131 58.62510681 -7.99121094 55.41772461 C-7.97419128 54.21985825 -7.95717163 53.02199188 -7.93963623 51.78782654 C-7.90541565 50.48885941 -7.87119507 49.18989227 -7.8359375 47.8515625 C-7.81044394 46.51162372 -7.78614715 45.17166167 -7.76300049 43.8316803 C-7.71140452 41.02284203 -7.64989127 38.21446168 -7.58056641 35.40600586 C-7.49167084 31.7989637 -7.42023717 28.19185635 -7.35528183 24.58431149 C-7.29262243 21.15242754 -7.22066248 17.72075593 -7.1484375 14.2890625 C-7.12231384 12.98807114 -7.09619019 11.68707977 -7.0692749 10.34666443 C-7.03964661 9.15195023 -7.01001831 7.95723602 -6.97949219 6.72631836 C-6.95489929 5.66867783 -6.9303064 4.61103729 -6.90496826 3.52134705 C-6.56214677 -1.06091427 -4.01844901 0.00725352 0 0 Z " fill="#FCFDFC" transform="translate(730.7265625,489.86328125)"/>
<path d="M0 0 C0.5067183 3.54073904 1.00417029 7.08272111 1.5 10.625 C1.64308594 11.62402344 1.78617187 12.62304688 1.93359375 13.65234375 C2.60352182 18.46944557 3.19978289 23.12196787 3 28 C0 28 0 28 -1.60546875 26.46875 C-2.12753906 25.8190625 -2.64960938 25.169375 -3.1875 24.5 C-3.71730469 23.8503125 -4.24710937 23.200625 -4.79296875 22.53125 C-5.19128906 22.0259375 -5.58960938 21.520625 -6 21 C-6.68804673 22.64560485 -7.37538101 24.29150756 -8.0625 25.9375 C-8.52269531 27.03449219 -8.98289062 28.13148438 -9.45703125 29.26171875 C-10.52886038 31.83562314 -11.56160338 34.42179053 -12.57421875 37.01953125 C-20.44909917 57.04449432 -31.70669784 75.86378332 -46 92 C-46.66 91.34 -47.32 90.68 -48 90 C-46.515 89.505 -46.515 89.505 -45 89 C-44.65152984 87.67054243 -44.32118377 86.33631204 -44 85 C-42.37109375 82.7109375 -42.37109375 82.7109375 -40.4375 80.375 C-37.79174619 77.5393198 -37.79174619 77.5393198 -37 74 C-36.236875 73.2575 -35.47375 72.515 -34.6875 71.75 C-31.97366049 68.97304795 -30.55797703 66.52594801 -29 63 C-28.34 63 -27.68 63 -27 63 C-26.9175 62.484375 -26.835 61.96875 -26.75 61.4375 C-25.87765494 58.60237856 -24.43150299 56.28792532 -22.921875 53.75 C-21.76468647 51.55330313 -21.29759392 49.45514984 -21 47 C-20.34 47 -19.68 47 -19 47 C-16.3938815 41.13695199 -16.3938815 41.13695199 -17 35 C-17.268125 35.78375 -17.53625 36.5675 -17.8125 37.375 C-19 40 -19 40 -22 42 C-23.4288986 44.26339012 -23.4288986 44.26339012 -24.75 46.9375 C-30.92559842 58.60251925 -38.31896627 69.03538078 -47.1015625 78.87109375 C-48.53017943 80.4731436 -49.9382368 82.09356362 -51.3359375 83.72265625 C-52.13257813 84.63917969 -52.92921875 85.55570312 -53.75 86.5 C-54.48734375 87.3559375 -55.2246875 88.211875 -55.984375 89.09375 C-58 91 -58 91 -61 91 C-59 88.33333333 -57 85.66666667 -55 83 C-54.48050781 82.25234375 -53.96101563 81.5046875 -53.42578125 80.734375 C-52.95527344 80.16203125 -52.48476563 79.5896875 -52 79 C-51.34 79 -50.68 79 -50 79 C-49.75378906 78.44054687 -49.50757813 77.88109375 -49.25390625 77.3046875 C-47.77220334 74.58130833 -45.96176451 72.47414647 -43.9375 70.125 C-39.17006264 64.37670232 -35.17808735 58.28015846 -31.23291016 51.95361328 C-29.91082328 49.85869463 -28.55905259 47.78544711 -27.19921875 45.71484375 C-21.28838894 36.71019668 -15.79554287 27.65738356 -11 18 C-11.84304688 18.23976563 -12.68609375 18.47953125 -13.5546875 18.7265625 C-14.65039062 19.02304687 -15.74609375 19.31953125 -16.875 19.625 C-17.96554687 19.92664063 -19.05609375 20.22828125 -20.1796875 20.5390625 C-21.11039062 20.69117188 -22.04109375 20.84328125 -23 21 C-23.66 20.34 -24.32 19.68 -25 19 C-19.43160089 13.84088361 -13.81348207 8.75708307 -8 3.875 C-7.113125 3.12992187 -6.22625 2.38484375 -5.3125 1.6171875 C-3 0 -3 0 0 0 Z " fill="#11C8E6" transform="translate(329,410)"/>
<path d="M0 0 C1.21223308 0.66511903 2.3997211 1.37677705 3.5625 2.125 C6.81127294 4.40340153 6.81127294 4.40340153 9.9375 3.25 C10.618125 2.8375 11.29875 2.425 12 2 C12 2.66 12 3.32 12 4 C11.34 4.33 10.68 4.66 10 5 C11.63412443 6.70840281 12.86906094 7.93453047 15 9 C13.35 9.66 11.7 10.32 10 11 C9.98582031 11.59167969 9.97164062 12.18335938 9.95703125 12.79296875 C9.69387428 17.15283955 9.45754867 19.41878953 6.6875 22.9375 C2.74243126 25.96511089 0.9297107 27.24320229 -4.0625 26.6875 C-8 26 -8 26 -11 25 C-13.0274689 26.09598651 -13.0274689 26.09598651 -15 27.75 C-15.680625 28.28109375 -16.36125 28.8121875 -17.0625 29.359375 C-18.80387186 30.83392376 -20.41741026 32.35806315 -22 34 C-23.485 33.505 -23.485 33.505 -25 33 C-22.75333364 29.59126484 -20.46728428 26.25200793 -18 23 C-18.61746094 23.71027344 -19.23492187 24.42054688 -19.87109375 25.15234375 C-27.64564264 33.58956348 -27.64564264 33.58956348 -32.8125 33.9375 C-33.53953125 33.93492187 -34.2665625 33.93234375 -35.015625 33.9296875 C-37.89463328 34.0316996 -39.73323602 35.31820737 -42 37 C-42 34 -42 34 -40.0625 31.875 C-36.91864974 29.95019372 -36.30849285 29.875 -32.875 29.875 C-26.93520149 29.42577154 -23.39930785 25.97795529 -19.24609375 21.96875 C-16.19315511 17.93356153 -15.78138525 14.59100168 -15.375 9.64453125 C-15 7 -15 7 -12.625 3.875 C-8.20509687 0.71792633 -5.57076243 -0.65538382 0 0 Z " fill="#10B7DC" transform="translate(186,426)"/>
<path d="M0 0 C0.99 0 1.98 0 3 0 C6.28707946 6.69590261 6.28707946 6.69590261 5.49609375 10.2890625 C4.93427178 11.75534226 4.32617358 13.20509827 3.6640625 14.62890625 C2.13613312 20.08451293 4.41701319 25.80721657 6 31.0625 C7.03576822 34.50871413 7.96506169 37.75073427 8.46484375 41.31640625 C8.73543067 44.24966962 8.73543067 44.24966962 11.5625 45.875 C12.366875 46.24625 13.17125 46.6175 14 47 C13.67 47.66 13.34 48.32 13 49 C12.360625 48.67 11.72125 48.34 11.0625 48 C6.98763159 46.66943072 3.24809575 46.83340801 -1 47 C-0.79632813 46.16726563 -0.59265625 45.33453125 -0.3828125 44.4765625 C0.06417817 40.41715747 -0.7194009 37.21679302 -1.875 33.375 C-2.24740057 32.07031385 -2.61979654 30.76562639 -2.9921875 29.4609375 C-3.32476562 28.31882812 -3.65734375 27.17671875 -4 26 C-4.34227417 24.66893378 -4.68105645 23.3368485 -5 22 C-6.65 21.67 -8.3 21.34 -10 21 C-8.51991304 15.99886406 -6.3681664 11.67084403 -3.875 7.125 C-3.50246094 6.43664062 -3.12992187 5.74828125 -2.74609375 5.0390625 C-1.83500474 3.35705202 -0.91809685 1.67819564 0 0 Z " fill="#13A1CE" transform="translate(315,460)"/>
<path d="M0 0 C3.98066095 1.57724302 5.60667274 2.41000911 8 6 C8.90597013 9.76326055 9.34626824 12.10377632 7.9375 15.75 C5.45632778 18.63136128 3.61188078 19.77332351 0 21 C-4.3745393 21.2144382 -7.27000555 20.4814857 -10.9375 18.0625 C-13.38236012 15.61763988 -13.92307793 14.6769142 -14.3125 11.25 C-13.91993628 7.16733731 -12.53100884 5.18183968 -10 2 C-6.25816125 -0.49455917 -4.43756964 -0.37606522 0 0 Z " fill="#FBFBFA" transform="translate(736,463)"/>
<path d="M0 0 C3.3 0 6.6 0 10 0 C10 0.33 10 0.66 10 1 C7.69 1.33 5.38 1.66 3 2 C2.67 27.41 2.34 52.82 2 79 C20.48 79 38.96 79 58 79 C58 74.71 58 70.42 58 66 C44.8 66 31.6 66 18 66 C18.33 65.34 18.66 64.68 19 64 C24.53588533 63.97535225 30.071739 63.95716504 35.60766602 63.94506836 C37.4924373 63.94002756 39.37720465 63.93319502 41.26196289 63.92456055 C43.96501636 63.91248383 46.66801831 63.90676932 49.37109375 63.90234375 C50.21900986 63.89718246 51.06692596 63.89202118 51.9405365 63.88670349 C53.96071068 63.88650805 55.98077934 63.93793789 58 64 C59 65 59 65 59.09765625 68.37890625 C59.09098369 69.77347077 59.07902532 71.16801743 59.0625 72.5625 C59.05798828 73.27341797 59.05347656 73.98433594 59.04882812 74.71679688 C59.03700864 76.47790013 59.01907263 78.23896036 59 80 C54.24792523 81.21594189 49.61491113 81.14433619 44.74609375 81.1328125 C43.84939468 81.13376923 42.95269562 81.13472595 42.02882385 81.13571167 C40.13176402 81.13639107 38.23470183 81.13455353 36.33764648 81.13037109 C33.47178744 81.1250635 30.60608828 81.13030137 27.74023438 81.13671875 C25.88802049 81.13605707 24.03580671 81.13477405 22.18359375 81.1328125 C20.9219767 81.13584885 20.9219767 81.13584885 19.63487244 81.13894653 C12.99695864 81.11354827 6.67679169 80.55639931 0 80 C0 53.6 0 27.2 0 0 Z " fill="#F1F0F0" transform="translate(657,472)"/>
<path d="M0 0 C0.5067183 3.54073904 1.00417029 7.08272111 1.5 10.625 C1.64308594 11.62402344 1.78617187 12.62304688 1.93359375 13.65234375 C2.60352182 18.46944557 3.19978289 23.12196787 3 28 C2.01 28 1.02 28 0 28 C-1.04644066 26.36209288 -2.0398183 24.68991979 -3 23 C-4.29579647 21.63015802 -5.61992749 20.2848951 -7 19 C-7.66 19.33 -8.32 19.66 -9 20 C-9 19.01 -9 18.02 -9 17 C-13.29 17.66 -17.58 18.32 -22 19 C-22.33 18.34 -22.66 17.68 -23 17 C-20.35050829 14.64662795 -17.67877536 12.3199744 -15 10 C-14.50226074 9.56671387 -14.00452148 9.13342773 -13.49169922 8.68701172 C-11.89709909 7.30404516 -10.29338336 5.93233903 -8.6875 4.5625 C-8.17219727 4.11342285 -7.65689453 3.6643457 -7.12597656 3.20166016 C-3.34253469 0 -3.34253469 0 0 0 Z " fill="#10D5ED" transform="translate(329,410)"/>
<path d="M0 0 C2.97922593 -0.02683987 5.95821295 -0.04676037 8.9375 -0.0625 C10.21270508 -0.07506836 10.21270508 -0.07506836 11.51367188 -0.08789062 C12.32255859 -0.09111328 13.13144531 -0.09433594 13.96484375 -0.09765625 C14.7137085 -0.10289307 15.46257324 -0.10812988 16.23413086 -0.11352539 C18 0 18 0 19 1 C19.07271741 3.35313555 19.08370868 5.70833668 19.0625 8.0625 C19.05347656 9.35285156 19.04445313 10.64320313 19.03515625 11.97265625 C19.02355469 12.97167969 19.01195312 13.97070312 19 15 C22.96 15 26.92 15 31 15 C31 15.33 31 15.66 31 16 C24.565 16.495 24.565 16.495 18 17 C15.86920309 12.73840618 16.95497683 6.59236298 17 2 C12.05 2 7.1 2 2 2 C2 6.95 2 11.9 2 17 C-0.97 17 -3.94 17 -7 17 C-7 20.63 -7 24.26 -7 28 C-5.700625 28.144375 -4.40125 28.28875 -3.0625 28.4375 C0.875 28.875 0.875 28.875 2 30 C2.1229668 32.37615262 2.18606042 34.72775179 2.2109375 37.10546875 C2.23902593 38.57878677 2.26769051 40.05209391 2.296875 41.52539062 C2.33800277 43.85131293 2.37488086 46.17703624 2.40136719 48.50317383 C2.42913072 50.74603632 2.47502191 52.98796927 2.5234375 55.23046875 C2.52669037 55.9181987 2.52994324 56.60592865 2.53329468 57.3144989 C2.64950558 61.92326804 3.69596873 65.03235392 6 69 C6.33 69.66 6.66 70.32 7 71 C5.1875 70.4375 5.1875 70.4375 3 69 C0.39130684 63.96560393 -0.36454336 60.28498323 -0.29296875 54.53515625 C-0.28872391 53.85698349 -0.28447906 53.17881073 -0.28010559 52.48008728 C-0.26347941 50.34046598 -0.22586174 48.20183053 -0.1875 46.0625 C-0.17243222 44.60092518 -0.1587475 43.13933542 -0.14648438 41.67773438 C-0.11362977 38.11817603 -0.06196241 34.55918444 0 31 C-1.11375 31.020625 -2.2275 31.04125 -3.375 31.0625 C-7 31 -7 31 -9 30 C-9 25.05 -9 20.1 -9 15 C-6.03 15 -3.06 15 0 15 C0 10.05 0 5.1 0 0 Z " fill="#EEECED" transform="translate(448,476)"/>
<path d="M0 0 C2.91517292 1.07401108 4.77810176 1.77810176 7 4 C7.3403125 5.36125 7.3403125 5.36125 7.6875 6.75 C9.45377721 11.12363881 12.30128602 13.2111301 16 16 C15.38245741 17.31602523 14.75571258 18.62773556 14.125 19.9375 C13.77695312 20.66839844 13.42890625 21.39929688 13.0703125 22.15234375 C12 24 12 24 10 25 C9.87625 23.88625 9.87625 23.88625 9.75 22.75 C8.81588125 19.3248979 7.8942612 18.05644875 5 16 C3.865625 16 2.73125 16 1.5625 16 C-2 16 -2 16 -4.9375 14.3125 C-7 12 -7 12 -7.75 9.6875 C-6.54621727 5.37394521 -3.28423517 2.90721838 0 0 Z " fill="#13A2D1" transform="translate(299,488)"/>
<path d="M0 0 C0.804375 -0.00128906 1.60875 -0.00257813 2.4375 -0.00390625 C3.283125 -0.00003906 4.12875 0.00382812 5 0.0078125 C6.2684375 0.00201172 6.2684375 0.00201172 7.5625 -0.00390625 C8.366875 -0.00261719 9.17125 -0.00132812 10 0 C10.7425 0.00112793 11.485 0.00225586 12.25 0.00341797 C14 0.1328125 14 0.1328125 15 1.1328125 C15.07271741 3.48594805 15.08370868 5.84114918 15.0625 8.1953125 C15.05347656 9.48566406 15.04445313 10.77601563 15.03515625 12.10546875 C15.02355469 13.10449219 15.01195312 14.10351562 15 15.1328125 C19.29 15.1328125 23.58 15.1328125 28 15.1328125 C29.93395001 19.00071253 30.23289353 20.2828584 30.125 24.3828125 C30.10695313 25.27484375 30.08890625 26.166875 30.0703125 27.0859375 C30.04710937 27.76140625 30.02390625 28.436875 30 29.1328125 C24.73312281 30.88843823 20.55604105 31.22541318 15 31.1328125 C15.01047363 31.75849121 15.02094727 32.38416992 15.03173828 33.02880859 C15.07323191 35.8551026 15.09930473 38.68133261 15.125 41.5078125 C15.15013672 42.98507812 15.15013672 42.98507812 15.17578125 44.4921875 C15.18222656 45.43320312 15.18867187 46.37421875 15.1953125 47.34375 C15.20578613 48.21306152 15.21625977 49.08237305 15.22705078 49.97802734 C15 52.1328125 15 52.1328125 13 54.1328125 C13 45.8828125 13 37.6328125 13 29.1328125 C17.95 29.1328125 22.9 29.1328125 28 29.1328125 C28 25.1728125 28 21.2128125 28 17.1328125 C23.05 17.1328125 18.1 17.1328125 13 17.1328125 C13 12.1828125 13 7.2328125 13 2.1328125 C7.72 2.1328125 2.44 2.1328125 -3 2.1328125 C-3 7.0828125 -3 12.0328125 -3 17.1328125 C-3.66 16.8028125 -4.32 16.4728125 -5 16.1328125 C-5.02685095 13.65357449 -5.04676547 11.1746241 -5.0625 8.6953125 C-5.07506836 7.63473633 -5.07506836 7.63473633 -5.08789062 6.55273438 C-5.09653588 4.74587691 -5.05220011 2.93893647 -5 1.1328125 C-3.4779041 -0.3892834 -2.11789918 0.00321729 0 0 Z " fill="#F1EFEF" transform="translate(615,475.8671875)"/>
<path d="M0 0 C3.5 0.8125 3.5 0.8125 5.5 1.9375 C7.20657378 5.13732583 6.45196177 7.4211362 5.5 10.8125 C3.375 13.3125 3.375 13.3125 0.5 14.8125 C-3.1875 14.5 -3.1875 14.5 -6.5 13.8125 C-7.49 14.3075 -7.49 14.3075 -8.5 14.8125 C-8.90729228 17.13406597 -9.24438677 19.4693787 -9.5 21.8125 C-11.92539606 18.17440591 -12.59069879 15.1660419 -12.5 10.8125 C-11.1875 8.8125 -11.1875 8.8125 -9.5 7.8125 C-8.84 7.8125 -8.18 7.8125 -7.5 7.8125 C-7.3453125 6.389375 -7.3453125 6.389375 -7.1875 4.9375 C-6.17293907 0.32585941 -4.59649095 -0.24624059 0 0 Z " fill="#0DB6D8" transform="translate(281.5,462.1875)"/>
<path d="M0 0 C0.99 0 1.98 0 3 0 C6.27294621 6.66711266 6.27294621 6.66711266 5.53125 10.2890625 C4.96839543 11.80564287 4.38228729 13.31379282 3.7734375 14.8125 C2.64701466 17.99834238 2.78633594 20.65259634 3 24 C1.02 24.99 1.02 24.99 -1 26 C-3.59937954 23.53058944 -5.79020692 20.81939117 -8 18 C-7.690625 17.443125 -7.38125 16.88625 -7.0625 16.3125 C-5.90692166 14.0576753 -5.90692166 14.0576753 -5.59375 11.65625 C-4.95068069 8.77936098 -3.91617998 6.72779637 -2.4375 4.1875 C-1.98246094 3.39730469 -1.52742188 2.60710937 -1.05859375 1.79296875 C-0.53458984 0.90544922 -0.53458984 0.90544922 0 0 Z " fill="#10C3E3" transform="translate(315,460)"/>
<path d="M0 0 C2.4375 1.25 2.4375 1.25 4.4375 4.25 C4.6344751 7.27028483 4.52423501 9.85487385 3.875 12.8125 C3.37881571 15.57695534 3.74320637 17.54996922 4.4375 20.25 C3.7775 19.92 3.1175 19.59 2.4375 19.25 C1.70674352 16.9359378 1.03611742 14.60171131 0.4375 12.25 C0.1075 12.25 -0.2225 12.25 -0.5625 12.25 C-0.5625 14.56 -0.5625 16.87 -0.5625 19.25 C-1.2225 19.58 -1.8825 19.91 -2.5625 20.25 C-3.18125 18.9196875 -3.18125 18.9196875 -3.8125 17.5625 C-5.40665668 14.21845674 -5.40665668 14.21845674 -7.8125 11.75 C-9.5625 9.25 -9.5625 9.25 -9.5 6.125 C-8.55646912 3.23150531 -7.98580523 2.0208769 -5.5625 0.25 C-2.5625 -0.75 -2.5625 -0.75 0 0 Z " fill="#189AC8" transform="translate(179.5625,460.75)"/>
<path d="M0 0 C0.495 0.99 0.495 0.99 1 2 C0.39351421 3.68949614 -0.27840576 5.35636866 -1 7 C-1.33 7.99 -1.66 8.98 -2 10 C-2.99 10.66 -3.98 11.32 -5 12 C-6.4288986 14.26339012 -6.4288986 14.26339012 -7.75 16.9375 C-13.92559842 28.60251925 -21.31896627 39.03538078 -30.1015625 48.87109375 C-31.53017943 50.4731436 -32.9382368 52.09356362 -34.3359375 53.72265625 C-35.13257813 54.63917969 -35.92921875 55.55570312 -36.75 56.5 C-37.48734375 57.3559375 -38.2246875 58.211875 -38.984375 59.09375 C-41 61 -41 61 -44 61 C-42 58.33333333 -40 55.66666667 -38 53 C-37.22076172 51.87851562 -37.22076172 51.87851562 -36.42578125 50.734375 C-35.95527344 50.16203125 -35.48476563 49.5896875 -35 49 C-34.34 49 -33.68 49 -33 49 C-32.75378906 48.44054687 -32.50757813 47.88109375 -32.25390625 47.3046875 C-30.77220334 44.58130833 -28.96176451 42.47414647 -26.9375 40.125 C-22.17907741 34.3875718 -18.18949728 28.30279363 -14.25048828 21.98876953 C-11.8926379 18.23885754 -9.47316737 14.52858291 -7.0625 10.8125 C-6.35311279 9.71591064 -6.35311279 9.71591064 -5.62939453 8.59716797 C-3.76817667 5.72049452 -1.90061898 2.85092847 0 0 Z " fill="#14C4E0" transform="translate(312,440)"/>
<path d="M0 0 C4.43283582 1.2005597 4.43283582 1.2005597 6 3.8125 C6.5 7.25 6.5 7.25 6 10.8125 C3.9375 13.3125 3.9375 13.3125 1 14.8125 C-5.01612051 14.70877378 -5.01612051 14.70877378 -7.7109375 12.25390625 C-8.13632812 11.77824219 -8.56171875 11.30257812 -9 10.8125 C-8.57576756 9.35025201 -8.13509755 7.89276588 -7.6875 6.4375 C-7.44386719 5.62539063 -7.20023437 4.81328125 -6.94921875 3.9765625 C-5.40693372 0.46040649 -3.74035987 -0.23377249 0 0 Z " fill="#216DB5" transform="translate(297,526.1875)"/>
<path d="M0 0 C1.051875 -0.02578125 2.10375 -0.0515625 3.1875 -0.078125 C6 0.25 6 0.25 7.86328125 1.56640625 C9.56285316 4.08364163 9.19682415 6.29763768 9 9.25 C8.34 9.25 7.68 9.25 7 9.25 C6.67 7.27 6.34 5.29 6 3.25 C1.71 3.25 -2.58 3.25 -7 3.25 C-6.99476318 4.90040283 -6.98952637 6.55080566 -6.98413086 8.2512207 C-6.96605973 14.36205505 -6.95456021 20.47288703 -6.94506836 26.58374023 C-6.940033 29.23087969 -6.93320437 31.87801635 -6.92456055 34.52514648 C-6.91246021 38.32536507 -6.90676378 42.12554695 -6.90234375 45.92578125 C-6.89718246 47.11335526 -6.89202118 48.30092926 -6.88670349 49.52449036 C-6.88662796 50.62540512 -6.88655243 51.72631989 -6.88647461 52.8605957 C-6.884254 53.83100296 -6.88203339 54.80141022 -6.87974548 55.80122375 C-7 58.25 -7 58.25 -8 61.25 C-2.72 61.25 2.56 61.25 8 61.25 C8 58.61 8 55.97 8 53.25 C10 55.25 10 55.25 10.1875 58.3125 C10 61.25 10 61.25 9 62.25 C7.65732587 62.33631874 6.31025678 62.35706473 4.96484375 62.34765625 C4.15595703 62.34443359 3.34707031 62.34121094 2.51367188 62.33789062 C1.66353516 62.32951172 0.81339844 62.32113281 -0.0625 62.3125 C-0.91650391 62.30798828 -1.77050781 62.30347656 -2.65039062 62.29882812 C-4.76695663 62.28700373 -6.88348685 62.26906769 -9 62.25 C-9.94119323 59.06472161 -10.12659234 56.20212813 -10.12939453 52.88647461 C-10.13254669 51.8153392 -10.13569885 50.7442038 -10.13894653 49.64060974 C-10.1369223 48.48948196 -10.13489807 47.33835419 -10.1328125 46.15234375 C-10.13376923 44.96653214 -10.13472595 43.78072052 -10.13571167 42.55897522 C-10.13639197 40.05323229 -10.13454813 37.54748759 -10.13037109 35.04174805 C-10.12501605 31.19901591 -10.13032363 27.3564004 -10.13671875 23.51367188 C-10.13605803 21.08072891 -10.13477701 18.64778601 -10.1328125 16.21484375 C-10.13483673 15.06169174 -10.13686096 13.90853973 -10.13894653 12.72044373 C-10.13579437 11.65246048 -10.13264221 10.58447723 -10.12939453 9.48413086 C-10.12859894 8.54355331 -10.12780334 7.60297577 -10.12698364 6.63389587 C-10 4.25 -10 4.25 -9 1.25 C-5.80693695 0.18564565 -3.35556004 0.04934647 0 0 Z " fill="#F3F2F2" transform="translate(765,489.75)"/>
<path d="M0 0 C-3.11910856 1.79275866 -5.67682428 2.34290718 -9.25 2.625 C-10.14203125 2.69976563 -11.0340625 2.77453125 -11.953125 2.8515625 C-12.62859375 2.90054688 -13.3040625 2.94953125 -14 3 C-14 3.66 -14 4.32 -14 5 C6.17080624 3.74689682 6.17080624 3.74689682 26.1730957 0.96557617 C29.83158217 0.313996 33.27978922 -0.16047968 37 0 C33.22480304 2.28290706 29.15722432 2.85005247 24.875 3.5625 C24.16601562 3.68818359 23.45703125 3.81386719 22.7265625 3.94335938 C12.58528612 5.68525127 2.61341738 6.16199567 -7.66943359 6.13037109 C-9.76016366 6.12497376 -11.85068236 6.13036694 -13.94140625 6.13671875 C-15.28906297 6.13605847 -16.63671955 6.13477834 -17.984375 6.1328125 C-19.18803711 6.13168457 -20.39169922 6.13055664 -21.63183594 6.12939453 C-24.84125154 6.00609863 -27.849264 5.60480197 -31 5 C-31 4.34 -31 3.68 -31 3 C-27.81325444 1.40662722 -24.32003115 1.66010709 -20.8125 1.5 C-13.86759254 1.17473981 -6.92797537 -0.20993865 0 0 Z " fill="#443095" transform="translate(126,576)"/>
<path d="M0 0 C0.99 0.33 1.98 0.66 3 1 C-12.65330184 11.40709986 -31.80732428 17.58659163 -50 22 C-51.00933594 22.24878906 -52.01867187 22.49757813 -53.05859375 22.75390625 C-54.17363281 23.02074219 -55.28867188 23.28757812 -56.4375 23.5625 C-57.54996094 23.83191406 -58.66242188 24.10132813 -59.80859375 24.37890625 C-62.64898781 24.93168796 -65.12036228 25.12379751 -68 25 C-65.79344571 22.79344571 -65.01297867 22.60353663 -62.0546875 21.9921875 C-61.23734131 21.81461914 -60.41999512 21.63705078 -59.57788086 21.45410156 C-58.68593018 21.26299805 -57.79397949 21.07189453 -56.875 20.875 C-26.40790507 14.69253294 -26.40790507 14.69253294 0 0 Z " fill="#412D9C" transform="translate(199,551)"/>
<path d="M0 0 C1.48831242 0.00667405 2.97660807 0.01863442 4.46484375 0.03515625 C5.22345703 0.03966797 5.98207031 0.04417969 6.76367188 0.04882812 C8.64326246 0.06064945 10.52281274 0.07858547 12.40234375 0.09765625 C12.73234375 0.75765625 13.06234375 1.41765625 13.40234375 2.09765625 C8.32516168 4.63624729 2.07880587 3.09765625 -3.59765625 3.09765625 C-3.59765625 22.23765625 -3.59765625 41.37765625 -3.59765625 61.09765625 C1.68234375 61.42765625 6.96234375 61.75765625 12.40234375 62.09765625 C12.40234375 62.42765625 12.40234375 62.75765625 12.40234375 63.09765625 C9.96454745 63.1516296 7.5279469 63.19131241 5.08984375 63.22265625 C4.39955078 63.23941406 3.70925781 63.25617187 2.99804688 63.2734375 C-0.76901021 63.30983419 -2.38197329 63.24144489 -5.59765625 61.09765625 C-5.92718506 58.58604431 -5.92718506 58.58604431 -5.86230469 55.37866211 C-5.84528503 54.18079575 -5.82826538 52.98292938 -5.81072998 51.74876404 C-5.7765094 50.44979691 -5.74228882 49.15082977 -5.70703125 47.8125 C-5.68153769 46.47256122 -5.6572409 45.13259917 -5.63409424 43.7926178 C-5.58249827 40.98377953 -5.52098502 38.17539918 -5.45166016 35.36694336 C-5.36276459 31.7599012 -5.29133092 28.15279385 -5.22637558 24.54524899 C-5.16371618 21.11336504 -5.09175623 17.68169343 -5.01953125 14.25 C-4.99340759 12.94900864 -4.96728394 11.64801727 -4.94036865 10.30760193 C-4.91074036 9.11288773 -4.88111206 7.91817352 -4.85058594 6.68725586 C-4.82599304 5.62961533 -4.80140015 4.57197479 -4.77606201 3.48228455 C-4.48756071 -0.37391585 -4.04374273 0.109765 0 0 Z " fill="#F0EDEF" transform="translate(728.59765625,489.90234375)"/>
<path d="M0 0 C2.475 0.495 2.475 0.495 5 1 C4.01 1.33 3.02 1.66 2 2 C2 5.63 2 9.26 2 13 C3.299375 13.144375 4.59875 13.28875 5.9375 13.4375 C9.875 13.875 9.875 13.875 11 15 C11.1229668 17.37615262 11.18606042 19.72775179 11.2109375 22.10546875 C11.23902593 23.57878677 11.26769051 25.05209391 11.296875 26.52539062 C11.33800277 28.85131293 11.37488086 31.17703624 11.40136719 33.50317383 C11.42913072 35.74603632 11.47502191 37.98796927 11.5234375 40.23046875 C11.52669037 40.9181987 11.52994324 41.60592865 11.53329468 42.3144989 C11.64950558 46.92326804 12.69596873 50.03235392 15 54 C15.33 54.66 15.66 55.32 16 56 C14.1875 55.4375 14.1875 55.4375 12 54 C9.39130684 48.96560393 8.63545664 45.28498323 8.70703125 39.53515625 C8.71127609 38.85698349 8.71552094 38.17881073 8.71989441 37.48008728 C8.73652059 35.34046598 8.77413826 33.20183053 8.8125 31.0625 C8.82756778 29.60092518 8.8412525 28.13933542 8.85351562 26.67773438 C8.88637023 23.11817603 8.93803759 19.55918444 9 16 C7.88625 16.020625 6.7725 16.04125 5.625 16.0625 C2 16 2 16 0 15 C0 10.05 0 5.1 0 0 Z " fill="#F4F2F2" transform="translate(439,491)"/>
<path d="M0 0 C5.08938811 1.59043379 8.87456643 4.7446951 13 8 C12.01 9.98 11.02 11.96 10 14 C9.41992188 13.60167969 8.83984375 13.20335937 8.2421875 12.79296875 C3.9360712 9.87248393 -0.274163 7.18115554 -5 5 C-3.35 3.35 -1.7 1.7 0 0 Z " fill="#2B54A5" transform="translate(284,542)"/>
<path d="M0 0 C1.1055189 0.93590504 2.20935453 1.87379858 3.3125 2.8125 C3.92738281 3.33457031 4.54226563 3.85664063 5.17578125 4.39453125 C6.85424679 5.87172469 8.43882034 7.40039131 10 9 C9.34 9.66 8.68 10.32 8 11 C7.67 11.845625 7.34 12.69125 7 13.5625 C6 16 6 16 4 17 C3.87625 15.88625 3.87625 15.88625 3.75 14.75 C2.81588125 11.3248979 1.8942612 10.05644875 -1 8 C-4.6675213 7.66582071 -4.6675213 7.66582071 -8 8 C-8 7.34 -8 6.68 -8 6 C-5.03 5.01 -2.06 4.02 1 3 C0.67 2.01 0.34 1.02 0 0 Z " fill="#1695C8" transform="translate(305,496)"/>
<path d="M0 0 C2.9375 1.75 2.9375 1.75 4.9375 4.75 C4.75 7.8125 4.75 7.8125 3.9375 10.75 C2.9475 11.41 1.9575 12.07 0.9375 12.75 C0.6075 11.76 0.2775 10.77 -0.0625 9.75 C0.5975 9.42 1.2575 9.09 1.9375 8.75 C2.59305119 6.22266765 2.59305119 6.22266765 2.9375 3.75 C-0.46570934 3.07326553 -0.46570934 3.07326553 -4.0625 2.75 C-4.7225 3.41 -5.3825 4.07 -6.0625 4.75 C-5.73837159 7.0837883 -5.73837159 7.0837883 -5.0625 9.75 C-4.84890412 11.851678 -4.66202167 13.9562183 -4.5 16.0625 C-4.41621094 17.13113281 -4.33242187 18.19976562 -4.24609375 19.30078125 C-4.18550781 20.10902344 -4.12492188 20.91726563 -4.0625 21.75 C-4.7225 21.75 -5.3825 21.75 -6.0625 21.75 C-6.09988281 21.14671875 -6.13726562 20.5434375 -6.17578125 19.921875 C-6.57359444 15.0857146 -7.11300448 12.63797137 -10.0625 8.75 C-9.93100006 5.52825143 -9.65092409 3.52564994 -7.6875 0.9375 C-4.66239632 -1.27315269 -3.48941915 -1.42425271 0 0 Z " fill="#0DB8DB" transform="translate(216.0625,439.25)"/>
<path d="M0 0 C7.59615808 5.03526652 7.59615808 5.03526652 9.125 8.6875 C9 11 9 11 7 14 C3.64749299 13.42424336 2.06181371 12.40693737 -0.25 9.9375 C-0.77078125 9.38964844 -1.2915625 8.84179688 -1.828125 8.27734375 C-2.40820312 7.64505859 -2.40820312 7.64505859 -3 7 C-2.67 6.34 -2.34 5.68 -2 5 C-1.34 5.33 -0.68 5.66 0 6 C0 4.02 0 2.04 0 0 Z " fill="#11C5E2" transform="translate(290,444)"/>
<path d="M0 0 C0.33 0.99 0.66 1.98 1 3 C-2.81528091 4.64328579 -6.57683996 5.70369461 -10.625 6.625 C-11.75164062 6.88539063 -12.87828125 7.14578125 -14.0390625 7.4140625 C-17 8 -17 8 -20 8 C-20 8.66 -20 9.32 -20 10 C-14.31150252 11.49697302 -9.58190932 10.3348044 -4 9 C-4 9.66 -4 10.32 -4 11 C-15.52164009 14.44419134 -15.52164009 14.44419134 -21 14 C-21 13.01 -21 12.02 -21 11 C-22.32 10.67 -23.64 10.34 -25 10 C-24.360625 9.896875 -23.72125 9.79375 -23.0625 9.6875 C-22.0415625 9.3471875 -22.0415625 9.3471875 -21 9 C-20.67 8.01 -20.34 7.02 -20 6 C-17.26953125 5.0859375 -17.26953125 5.0859375 -13.8125 4.375 C-12.68457031 4.13523437 -11.55664062 3.89546875 -10.39453125 3.6484375 C-8.15231891 3.22012076 -5.89833318 2.84901663 -3.63671875 2.5390625 C-2.76660156 2.36117188 -1.89648438 2.18328125 -1 2 C-0.67 1.34 -0.34 0.68 0 0 Z " fill="#11C4E1" transform="translate(219,421)"/>
<path d="M0 0 C0 3.6056883 -0.86892004 4.67743971 -2.8515625 7.640625 C-3.45613281 8.54683594 -4.06070312 9.45304687 -4.68359375 10.38671875 C-5.32425781 11.33160156 -5.96492188 12.27648437 -6.625 13.25 C-7.24246094 14.17941406 -7.85992187 15.10882813 -8.49609375 16.06640625 C-12.04651023 21.35092089 -15.74663621 26.2624071 -20 31 C-20.66 30.34 -21.32 29.68 -22 29 C-21.01 28.67 -20.02 28.34 -19 28 C-18.65152984 26.67054243 -18.32118377 25.33631204 -18 24 C-16.37109375 21.7109375 -16.37109375 21.7109375 -14.4375 19.375 C-11.79174619 16.5393198 -11.79174619 16.5393198 -11 13 C-9.8553125 11.88625 -9.8553125 11.88625 -8.6875 10.75 C-5.95990687 7.95897447 -4.69622658 5.46955436 -3 2 C-2.01 1.34 -1.02 0.68 0 0 Z " fill="#15A1D0" transform="translate(303,471)"/>
<path d="M0 0 C0.33 0 0.66 0 1 0 C1 3.63 1 7.26 1 11 C-3.95 11.33 -8.9 11.66 -14 12 C-13.97679687 13.20398438 -13.95359375 14.40796875 -13.9296875 15.6484375 C-13.91093137 17.22395215 -13.89273101 18.79947348 -13.875 20.375 C-13.85824219 21.1690625 -13.84148437 21.963125 -13.82421875 22.78125 C-13.80664527 24.85492015 -13.89664832 26.92883241 -14 29 C-14.66 29.66 -15.32 30.32 -16 31 C-16 24.07 -16 17.14 -16 10 C-10.72 10 -5.44 10 0 10 C0 6.7 0 3.4 0 0 Z " fill="#F1F1F2" transform="translate(481,495)"/>
<path d="M0 0 C0.66 0.66 1.32 1.32 2 2 C2.66 1.67 3.32 1.34 4 1 C4.99 1.66 5.98 2.32 7 3 C6.505 3.94875 6.01 4.8975 5.5 5.875 C3.85575631 8.72278166 3.85575631 8.72278166 4 11 C4 12.66666667 4 14.33333333 4 16 C-5.41002278 17.14806378 -5.41002278 17.14806378 -10 17 C-7 15 -7 15 0 15 C0 10.05 0 5.1 0 0 Z " fill="#F0EDF1" transform="translate(599,490)"/>
<path d="M0 0 C0.66 0 1.32 0 2 0 C1.88195956 3.89533465 0.55552523 5.69793848 -2.125 8.3125 C-2.75148438 8.9003125 -3.37796875 9.488125 -4.0234375 10.09375 C-6.68997013 12.66542573 -9.03956999 15.46761946 -11.421875 18.30078125 C-13 20 -13 20 -16 22 C-16 18.24167933 -15.06392776 17.6301838 -12.5625 14.9375 C-9.97320177 12.1815464 -9.97320177 12.1815464 -8 9 C-7.34 9 -6.68 9 -6 9 C-5.7525 8.443125 -5.505 7.88625 -5.25 7.3125 C-3.77075182 4.57589087 -2.06532561 2.32349131 0 0 Z " fill="#1897CD" transform="translate(285,480)"/>
<path d="M0 0 C2.375 1.5 2.375 1.5 4 3 C1.3365828 3.5483506 -1.22368046 4.01903663 -3.9375 4.25 C-8.03212144 5.25276443 -9.86259611 7.21911928 -13 10 C-13.66 10 -14.32 10 -15 10 C-14.45503269 6.18522884 -12.88938827 4.47661852 -10 2 C-6.68208541 -0.21194306 -3.94458775 -0.41089456 0 0 Z " fill="#11BEDB" transform="translate(186,426)"/>
<path d="M0 0 C0.66 0.33 1.32 0.66 2 1 C1.33613281 1.44730469 0.67226562 1.89460937 -0.01171875 2.35546875 C-4.76931815 5.61286162 -9.02102073 8.79996632 -13 13 C-16.774707 16.37314242 -20.29210399 19.07404254 -25 21 C-25.66 20.67 -26.32 20.34 -27 20 C-25.59993463 17.19986926 -23.87219169 17.14230227 -21 16 C-18.5857333 14.43840097 -18.5857333 14.43840097 -16.3125 12.625 C-15.54550781 12.03976562 -14.77851563 11.45453125 -13.98828125 10.8515625 C-11.91545961 9.15328531 -11.91545961 9.15328531 -11.04296875 6.94921875 C-9.57674709 4.20897677 -7.76737129 3.5188952 -5 2.1875 C-4.113125 1.74792969 -3.22625 1.30835938 -2.3125 0.85546875 C-1.549375 0.57316406 -0.78625 0.29085937 0 0 Z " fill="#3839A0" transform="translate(218,561)"/>
<path d="M0 0 C-5.45187477 3.62467968 -10.93098184 6.54905036 -17 9 C-17.94875 9.38671875 -18.8975 9.7734375 -19.875 10.171875 C-27.77016384 13.23755032 -27.77016384 13.23755032 -32 12 C-31.10861328 11.62246582 -31.10861328 11.62246582 -30.19921875 11.23730469 C-27.46502045 10.07750284 -24.73250796 8.91377842 -22 7.75 C-21.06542969 7.35425781 -20.13085938 6.95851563 -19.16796875 6.55078125 C-14.85873891 4.71257831 -10.63712812 2.84178932 -6.5 0.640625 C-3 -1 -3 -1 0 0 Z " fill="#333B9B" transform="translate(202,552)"/>
<path d="M0 0 C2.475 0.495 2.475 0.495 5 1 C5.12375 1.804375 5.2475 2.60875 5.375 3.4375 C5.684375 4.7059375 5.684375 4.7059375 6 6 C6.66 6.33 7.32 6.66 8 7 C8.33 7.66 8.66 8.32 9 9 C9.66 9.33 10.32 9.66 11 10 C11 9.34 11 8.68 11 8 C11.66 8 12.32 8 13 8 C13.625 11.375 13.625 11.375 14 15 C13.34 15.66 12.68 16.32 12 17 C11.67 16.34 11.34 15.68 11 15 C10.34 15.66 9.68 16.32 9 17 C8.71125 16.2575 8.4225 15.515 8.125 14.75 C7.09866488 12.093335 7.09866488 12.093335 5.9375 10.0625 C4.73861104 7.42494429 4.38972169 4.85795906 4 2 C2.68 1.67 1.36 1.34 0 1 C0 0.67 0 0.34 0 0 Z " fill="#10B7DE" transform="translate(242,454)"/>
<path d="M0 0 C1.32 0.66 2.64 1.32 4 2 C4 2.66 4 3.32 4 4 C2.35546875 5.40234375 2.35546875 5.40234375 0.1875 6.9375 C-2.43530583 8.80547282 -4.78449355 10.65869193 -7 13 C-7.99 12.67 -8.98 12.34 -10 12 C-7.11954533 7.34695784 -3.96084779 3.78080926 0 0 Z " fill="#11AAD3" transform="translate(171,447)"/>
<path d="M0 0 C0.70640625 0.05220703 1.4128125 0.10441406 2.140625 0.15820312 C3.88579987 0.28791207 5.63045725 0.42454954 7.375 0.5625 C5.375 2.5625 5.375 2.5625 2.3359375 2.7578125 C-2.64453125 2.66015625 -2.64453125 2.66015625 -7.625 2.5625 C-7.625 7.5125 -7.625 12.4625 -7.625 17.5625 C-7.955 17.5625 -8.285 17.5625 -8.625 17.5625 C-8.955 11.9525 -9.285 6.3425 -9.625 0.5625 C-6.5270403 -0.98647985 -3.36283448 -0.26989539 0 0 Z " fill="#F1F0F2" transform="translate(570.625,490.4375)"/>
<path d="M0 0 C0.66 0.33 1.32 0.66 2 1 C-0.55297573 4.29759365 -1.71098255 4.95871179 -5.9375 5.5625 C-6.62714844 5.6140625 -7.31679687 5.665625 -8.02734375 5.71875 C-10.8080682 6.11520972 -12.74725283 7.38083797 -15 9 C-15 6 -15 6 -13.0625 3.875 C-9.51068885 1.70042174 -6.97640673 1.41254013 -2.890625 1.17578125 C-0.98908319 1.2019529 -0.98908319 1.2019529 0 0 Z " fill="#149BCA" transform="translate(159,454)"/>
<path d="M0 0 C1.125 1.625 1.125 1.625 2 4 C1.27203368 7.56703499 0.62448967 9.4489797 -2.125 11.875 C-2.74375 12.24625 -3.3625 12.6175 -4 13 C-5.34622701 6.75840203 -5.34622701 6.75840203 -3.6875 3.125 C-2 1 -2 1 0 0 Z " fill="#0FD5F2" transform="translate(317,436)"/>
<path d="M0 0 C-3.11910856 1.79275866 -5.67682428 2.34290718 -9.25 2.625 C-10.14203125 2.69976563 -11.0340625 2.77453125 -11.953125 2.8515625 C-12.62859375 2.90054688 -13.3040625 2.94953125 -14 3 C-14 3.66 -14 4.32 -14 5 C-16.64 5 -19.28 5 -22 5 C-22.33 4.01 -22.66 3.02 -23 2 C-20.10452736 1.66324721 -17.20868928 1.33048266 -14.3125 1 C-13.49587891 0.90460937 -12.67925781 0.80921875 -11.83789062 0.7109375 C-7.87139948 0.26129478 -3.99997537 -0.13034543 0 0 Z " fill="#472D9E" transform="translate(126,576)"/>
<path d="M0 0 C0.66 0.33 1.32 0.66 2 1 C2.125 3.875 2.125 3.875 2 7 C1.34 7.66 0.68 8.32 0 9 C0 8.01 0 7.02 0 6 C-1.32 6.33 -2.64 6.66 -4 7 C-4.33 9.31 -4.66 11.62 -5 14 C-5.33 14 -5.66 14 -6 14 C-6.42670076 10.51527717 -6.64789556 7.9813155 -4.6640625 4.9765625 C-3.16390788 3.25103253 -1.63343216 1.59940232 0 0 Z " fill="#1E82BE" transform="translate(279,512)"/>
<path d="M0 0 C0 0.33 0 0.66 0 1 C-1.27875 1.0825 -2.5575 1.165 -3.875 1.25 C-9.90791803 1.90970102 -16.62063104 3.62063104 -21 8 C-21.33 7.01 -21.66 6.02 -22 5 C-14.86063438 0.16365555 -8.43917572 -1.68783514 0 0 Z " fill="#3C2E97" transform="translate(190,577)"/>
<path d="M0 0 C0.33 0 0.66 0 1 0 C1.56452428 3.55650297 1.87385233 5.57655499 1 9 C-1.97501229 12.476067 -5.35627314 15.24768489 -9 18 C-9.66 17.34 -10.32 16.68 -11 16 C-10.37351563 15.5153125 -9.74703125 15.030625 -9.1015625 14.53125 C-3.56631927 9.99130287 -0.89656933 7.17255467 0 0 Z " fill="#11ACD2" transform="translate(171,437)"/>
<path d="M0 0 C2.125 0.375 2.125 0.375 4 1 C1.525 2.485 1.525 2.485 -1 4 C-0.84660156 4.69480469 -0.69320312 5.38960938 -0.53515625 6.10546875 C0.03319771 9.17955844 0.32278555 12.19621221 0.5625 15.3125 C0.64628906 16.38113281 0.73007813 17.44976562 0.81640625 18.55078125 C0.87699219 19.35902344 0.93757812 20.16726563 1 21 C0.34 21 -0.32 21 -1 21 C-1.07347656 20.11248047 -1.07347656 20.11248047 -1.1484375 19.20703125 C-1.617779 14.1003934 -1.617779 14.1003934 -3.1875 9.25 C-4 7 -4 7 -3.25 4.3125 C-2 2 -2 2 0 0 Z " fill="#11C1E3" transform="translate(211,440)"/>
<path d="M0 0 C3.3 0.33 6.6 0.66 10 1 C6.25 8.875 6.25 8.875 4 10 C3.896875 9.236875 3.79375 8.47375 3.6875 7.6875 C2.94399108 4.78105605 2.15141968 3.96433971 0 2 C0 1.34 0 0.68 0 0 Z " fill="#1B8BBF" transform="translate(305,503)"/>
<path d="M0 0 C0.99 0.33 1.98 0.66 3 1 C4.04111729 3.94519277 4.43536684 6.91623428 5 10 C8.3 10.99 11.6 11.98 15 13 C15 13.33 15 13.66 15 14 C7.99325236 14.47503374 7.99325236 14.47503374 4.125 12.625 C1.03023642 8.80205675 0.61306826 4.7947428 0 0 Z " fill="#0C94C3" transform="translate(249,476)"/>
<path d="M0 0 C-0.99 0.495 -0.99 0.495 -2 1 C-2.33 1.66 -2.66 2.32 -3 3 C-5.0625 3.625 -5.0625 3.625 -7 4 C-6.67 6.64 -6.34 9.28 -6 12 C-8.0625 10.375 -8.0625 10.375 -10 8 C-10 4.44946671 -9.64301849 2.71191333 -7.25 0.0625 C-4.41184751 -1.27773867 -2.94905709 -0.90110078 0 0 Z " fill="#1870AD" transform="translate(166,489)"/>
<path d="M0 0 C-0.49831724 3.68754757 -1.10067643 5.60490662 -4 8 C-3.125 3.25 -3.125 3.25 -2 1 C-3.26457031 1.35964844 -3.26457031 1.35964844 -4.5546875 1.7265625 C-5.65039062 2.02304687 -6.74609375 2.31953125 -7.875 2.625 C-8.96554687 2.92664063 -10.05609375 3.22828125 -11.1796875 3.5390625 C-12.11039062 3.69117188 -13.04109375 3.84328125 -14 4 C-14.66 3.34 -15.32 2.68 -16 2 C-10.83227265 0.27742422 -5.42857487 -0.16964296 0 0 Z " fill="#13C3DB" transform="translate(320,427)"/>
<path d="M0 0 C7.12647031 1.70022388 14.0834212 3.57919742 21 6 C17.00245552 7.56294972 13.94602477 6.41335735 9.9375 5.25 C8.70902344 4.90453125 7.48054688 4.5590625 6.21484375 4.203125 C3.28423955 3.10637397 1.89381571 2.41409476 0 0 Z " fill="#F4F4F3" transform="translate(384,514)"/>
<path d="M0 0 C0.66 0.33 1.32 0.66 2 1 C1.34 2.32 0.68 3.64 0 5 C1.98 6.65 3.96 8.3 6 10 C5.67 11.65 5.34 13.3 5 15 C3.25372522 12.38058783 2.61277612 10.96175123 2 8 C0.35 7.67 -1.3 7.34 -3 7 C-1.125 1.125 -1.125 1.125 0 0 Z " fill="#10B0D3" transform="translate(308,474)"/>
<path d="M0 0 C0 0.66 0 1.32 0 2 C-1.03125 1.896875 -2.0625 1.79375 -3.125 1.6875 C-8.17666081 2.094892 -9.37002008 3.6232745 -13 7 C-13.66 7 -14.32 7 -15 7 C-11.93033106 -0.4183666 -7.26649335 -0.41922077 0 0 Z " fill="#4230A3" transform="translate(235,591)"/>
<path d="M0 0 C2.998344 2.73761844 3.92409477 4.71314155 4.16796875 8.84765625 C4.17441406 9.90855469 4.18085938 10.96945312 4.1875 12.0625 C4.20167969 13.12597656 4.21585937 14.18945312 4.23046875 15.28515625 C4 18 4 18 2 20 C2 17.99986268 2.00003859 15.99890242 2.0703125 14 C2.1791149 10.02094072 2.01101945 7.51928403 0 4 C0 2.68 0 1.36 0 0 Z " fill="#F8F6F0" transform="translate(434,517)"/>
<path d="M0 0 C1.5 1.25 1.5 1.25 3 3 C3 7 3 7 0.3125 9.8125 C-3 12 -3 12 -5.875 11.8125 C-6.57625 11.544375 -7.2775 11.27625 -8 11 C-6 9 -6 9 -3.4375 8.1875 C-2.2309375 7.5996875 -2.2309375 7.5996875 -1 7 C-0.20087384 4.54115028 0 2.56909202 0 0 Z " fill="#1E7FBE" transform="translate(178,482)"/>
<path d="M0 0 C1 2 1 2 0.375 4.25 C-1.33818866 7.67637732 -3.46502376 10.13147426 -6 13 C-6.66 12.34 -7.32 11.68 -8 11 C-5.36 7.37 -2.72 3.74 0 0 Z " fill="#13ACD2" transform="translate(294,468)"/>
<path d="M0 0 C0.99 0.33 1.98 0.66 3 1 C-2.42045455 7.92613636 -2.42045455 7.92613636 -6 9 C-6.99 8.67 -7.98 8.34 -9 8 C-8.43410156 7.50628906 -7.86820312 7.01257813 -7.28515625 6.50390625 C-6.55167969 5.86324219 -5.81820313 5.22257812 -5.0625 4.5625 C-4.33160156 3.92441406 -3.60070312 3.28632813 -2.84765625 2.62890625 C-1.87860647 1.77458541 -0.91348825 0.91348825 0 0 Z " fill="#0ECFE5" transform="translate(315,419)"/>
<path d="M0 0 C0.33 0 0.66 0 1 0 C1.36446469 7.28929385 1.36446469 7.28929385 -0.25 10.4375 C-2.17906702 12.15988127 -3.46096004 12.64978759 -6 13 C-6.66 12.01 -7.32 11.02 -8 10 C-6.7934375 9.7834375 -6.7934375 9.7834375 -5.5625 9.5625 C-3.07896294 9.25864751 -3.07896294 9.25864751 -2 8 C-1.835 6.845 -1.67 5.69 -1.5 4.5 C-1 1 -1 1 0 0 Z " fill="#2754A8" transform="translate(181,520)"/>
<path d="M0 0 C2.4375 0.625 2.4375 0.625 5 2 C5.8125 5.125 5.8125 5.125 6 8 C3.69 9.65 1.38 11.3 -1 13 C-1.66 12.67 -2.32 12.34 -3 12 C-1.4375 10.828125 0.125 9.65625 1.6875 8.484375 C3.44160248 6.8308053 3.44160248 6.8308053 3 3 C1.5833253 1.2488427 1.5833253 1.2488427 0 0 Z " fill="#3144A3" transform="translate(172,535)"/>
<path d="M0 0 C0.75925781 0.08378906 1.51851562 0.16757812 2.30078125 0.25390625 C3.29464844 0.35574219 4.28851563 0.45757813 5.3125 0.5625 C6.29863281 0.66691406 7.28476563 0.77132812 8.30078125 0.87890625 C11.09930347 1.16602527 11.09930347 1.16602527 14 0 C14 0.99 14 1.98 14 3 C8.16605611 4.10643764 5.23420787 4.27137992 0 1 C0 0.67 0 0.34 0 0 Z " fill="#5023A2" transform="translate(175,599)"/>
<path d="M0 0 C3.7109611 0.31991044 4.99743948 0.7900419 7.625 3.3125 C3.12214836 4.81345055 -0.88305496 3.52186982 -5.375 2.3125 C-3.375 0.3125 -3.375 0.3125 0 0 Z " fill="#12ABD7" transform="translate(261.375,468.6875)"/>
<path d="M0 0 C0.99 0.33 1.98 0.66 3 1 C2.34 2.32 1.68 3.64 1 5 C-2.61029169 5 -5.55806676 4.03907418 -9 3 C-9 2.67 -9 2.34 -9 2 C-6.94921875 1.77213542 -4.8984375 1.54427083 -2.84765625 1.31640625 C-0.98859771 1.18113386 -0.98859771 1.18113386 0 0 Z " fill="#1397CA" transform="translate(267,488)"/>
<path d="M0 0 C1 3 1 3 0.07421875 5.4453125 C-0.38339844 6.32960938 -0.84101563 7.21390625 -1.3125 8.125 C-1.98732422 9.45917969 -1.98732422 9.45917969 -2.67578125 10.8203125 C-4 13 -4 13 -6 14 C-4.45941767 8.98491285 -2.97068161 4.3852919 0 0 Z " fill="#14B9DA" transform="translate(300,458)"/>
<path d="M0 0 C-0.7734375 0.37125 -0.7734375 0.37125 -1.5625 0.75 C-3.62026835 1.80526582 -5.62027223 2.91156026 -7.625 4.0625 C-9.39573392 5.07903244 -11.17378275 6.08689137 -13 7 C-10.30332745 0.48304134 -6.81821784 -0.39335872 0 0 Z " fill="#0CCEE7" transform="translate(186,428)"/>
<path d="M0 0 C0.66 0.33 1.32 0.66 2 1 C-0.10148204 4.98175544 -2.36905358 7.35039045 -6 10 C-6 6.41087588 -5.33563446 5.89142971 -3 3.3125 C-2.443125 2.68988281 -1.88625 2.06726563 -1.3125 1.42578125 C-0.879375 0.95527344 -0.44625 0.48476563 0 0 Z " fill="#1882BF" transform="translate(275,492)"/>
<path d="M0 0 C1.9375 1.5 1.9375 1.5 3 3 C1.96875 2.79375 0.9375 2.5875 -0.125 2.375 C-4.1234216 1.98805597 -6.33693757 2.48116924 -10 4 C-10 3.01 -10 2.02 -10 1 C-6.44646071 -0.1845131 -3.72986522 -0.26641894 0 0 Z " fill="#0CE1F3" transform="translate(282,428)"/>
<path d="M0 0 C0.66 0 1.32 0 2 0 C2.99 4.62 3.98 9.24 5 14 C1.84729247 10.84729247 1.52228385 10.03663866 0.8125 5.875 C0.65394531 4.98554687 0.49539062 4.09609375 0.33203125 3.1796875 C0 1 0 1 0 0 Z " fill="#4B25A2" transform="translate(170,585)"/>
<path d="M0 0 C1.37478516 0.01740234 1.37478516 0.01740234 2.77734375 0.03515625 C3.69644531 0.04417969 4.61554688 0.05320312 5.5625 0.0625 C6.27277344 0.07410156 6.98304688 0.08570313 7.71484375 0.09765625 C7.38484375 1.08765625 7.05484375 2.07765625 6.71484375 3.09765625 C0.08984375 3.34765625 0.08984375 3.34765625 -3.28515625 1.09765625 C-2.28515625 0.09765625 -2.28515625 0.09765625 0 0 Z " fill="#2D429D" transform="translate(183.28515625,544.90234375)"/>
<path d="M0 0 C2 2 2 2 2.125 4.625 C2.08375 5.40875 2.0425 6.1925 2 7 C2.99 7.33 3.98 7.66 5 8 C4.67 8.66 4.34 9.32 4 10 C2.35 10 0.7 10 -1 10 C-0.835 9.0925 -0.67 8.185 -0.5 7.25 C0.10137146 3.88912497 0.10137146 3.88912497 0 0 Z " fill="#1994C4" transform="translate(315,497)"/>
<path d="M0 0 C0 3 0 3 -2 5.1875 C-2.66 5.785625 -3.32 6.38375 -4 7 C-4.99 6.67 -5.98 6.34 -7 6 C-7 5.34 -7 4.68 -7 4 C-4.69 2.68 -2.38 1.36 0 0 Z " fill="#168CC5" transform="translate(203,483)"/>
<path d="M0 0 C0.66 0.66 1.32 1.32 2 2 C-1.39464446 4.08901197 -4.04841529 4.34361606 -8 4 C-8.66 3.34 -9.32 2.68 -10 2 C-6.30581799 0.768606 -3.7943739 1.35567236 0 2 C0 1.34 0 0.68 0 0 Z " fill="#5225A4" transform="translate(236,613)"/>
<path d="M0 0 C0.66 0.33 1.32 0.66 2 1 C0.5459375 2.051875 0.5459375 2.051875 -0.9375 3.125 C-3.55157225 5.27161462 -3.96258406 5.85835394 -4.875 9.3125 C-4.91625 10.199375 -4.9575 11.08625 -5 12 C-5.33 12 -5.66 12 -6 12 C-6.25 5.375 -6.25 5.375 -4 2 C-2 0.75 -2 0.75 0 0 Z " fill="#4035A4" transform="translate(201,580)"/>
<path d="M0 0 C0.33 0.99 0.66 1.98 1 3 C-1.45906075 6.87774964 -3.61740632 8.66087415 -8 10 C-7.59007812 9.52949219 -7.18015625 9.05898438 -6.7578125 8.57421875 C-6.21898437 7.95160156 -5.68015625 7.32898438 -5.125 6.6875 C-4.59132812 6.07261719 -4.05765625 5.45773437 -3.5078125 4.82421875 C-1.8359553 2.86501788 -1.8359553 2.86501788 0 0 Z " fill="#1B96C7" transform="translate(203,474)"/>
<path d="M0 0 C0.66 0.33 1.32 0.66 2 1 C1.67 1.99 1.34 2.98 1 4 C0.34 4 -0.32 4 -1 4 C-1.33 6.31 -1.66 8.62 -2 11 C-2.33 11 -2.66 11 -3 11 C-3.36923077 4.6 -3.36923077 4.6 -1.5 1.5625 C-1.005 1.046875 -0.51 0.53125 0 0 Z " fill="#227BB8" transform="translate(276,515)"/>
<path d="M0 0 C0.66 0 1.32 0 2 0 C0.73058503 3.91402949 -0.51167694 5.79072873 -4 8 C-4 7.01 -4 6.02 -4 5 C-3.34 5 -2.68 5 -2 5 C-1.7834375 4.0409375 -1.7834375 4.0409375 -1.5625 3.0625 C-1 1 -1 1 0 0 Z " fill="#198FC7" transform="translate(286,494)"/>
<path d="M0 0 C-3.18762365 2.12508244 -5.26512223 2.5020163 -9 3 C-8.67 2.01 -8.34 1.02 -8 0 C-4.71303767 -0.79953138 -3.28976808 -1.09658936 0 0 Z " fill="#4433A7" transform="translate(253,598)"/>
<path d="M0 0 C0 3.99904969 -1.72586967 5.80200422 -4 9 C-5 6 -5 6 -4.25 3.9375 C-3 2 -3 2 0 0 Z " fill="#16B1D8" transform="translate(303,471)"/>
<path d="M0 0 C0.99 0 1.98 0 3 0 C3 1.65 3 3.3 3 5 C2.01 5.495 2.01 5.495 1 6 C1 5.01 1 4.02 1 3 C0.01 3.33 -0.98 3.66 -2 4 C-1.34 2.68 -0.68 1.36 0 0 Z " fill="#15E1F4" transform="translate(326,410)"/>
<path d="M0 0 C2.97 0.33 5.94 0.66 9 1 C9 1.99 9 2.98 9 4 C2.25 2.25 2.25 2.25 0 0 Z " fill="#492FA5" transform="translate(206,597)"/>
<path d="M0 0 C2.64 0.33 5.28 0.66 8 1 C8 1.66 8 2.32 8 3 C5.69 3 3.38 3 1 3 C0.67 2.01 0.34 1.02 0 0 Z " fill="#0F9DCB" transform="translate(222,467)"/>
<path d="M0 0 C3 1 3 1 3 1 Z " fill="#31C3E0" transform="translate(214,434)"/>
</svg>
